<?xml version="1.0" standalone="no"?>
<!DOCTYPE svg PUBLIC "-//W3C//DTD SVG 20010904//EN"
 "http://www.w3.org/TR/2001/REC-SVG-20010904/DTD/svg10.dtd">
<svg version="1.0" xmlns="http://www.w3.org/2000/svg"
 width="1280.000000pt" height="1068.000000pt" viewBox="0 0 1280.000000 1068.000000"
 preserveAspectRatio="xMidYMid meet">
<metadata>
Created by potrace 1.15, written by Peter Selinger 2001-2017
</metadata>
<g transform="translate(0.000000,1068.000000) scale(0.100000,-0.100000)"
fill="#000000" stroke="none">
<path d="M2105 10670 c-172 -27 -421 -115 -517 -183 -100 -70 -323 -295 -381
-385 -26 -40 -115 -202 -196 -360 -82 -158 -177 -339 -211 -402 -84 -155 -110
-216 -110 -255 0 -82 148 -446 306 -752 67 -131 119 -246 145 -325 22 -68 49
-136 59 -153 27 -45 57 -139 85 -272 34 -161 33 -169 -18 -230 -24 -28 -49
-65 -55 -82 -7 -17 -17 -44 -22 -59 -8 -19 -27 -36 -63 -54 -91 -45 -211 -170
-292 -303 -42 -70 -43 -88 -10 -131 14 -18 25 -44 25 -57 0 -24 -32 -79 -71
-120 -43 -45 -200 -331 -219 -398 -7 -22 -5 -42 5 -66 23 -55 19 -68 -34 -102
-89 -57 -89 -59 -53 -152 43 -107 42 -127 -3 -134 -19 -3 -50 -7 -69 -10 -23
-4 -45 -18 -66 -41 -36 -41 -44 -60 -65 -148 -19 -84 -87 -237 -164 -372 -108
-187 -128 -277 -86 -384 10 -25 20 -78 23 -118 4 -70 3 -75 -22 -98 -14 -14
-26 -33 -26 -43 0 -59 167 -323 220 -347 112 -52 138 -64 159 -71 14 -6 28
-22 35 -43 10 -31 19 -37 86 -62 48 -18 83 -37 97 -55 47 -59 69 -74 137 -94
97 -29 109 -41 104 -106 -3 -29 -11 -61 -20 -70 -8 -10 -15 -38 -16 -63 -1
-25 -22 -114 -47 -199 -82 -281 -95 -409 -76 -780 12 -249 18 -273 79 -315 94
-65 238 -91 502 -91 209 1 347 15 420 46 25 10 67 23 93 29 27 6 75 22 108 35
68 29 94 31 103 9 10 -25 7 -1004 -4 -1259 -10 -242 -21 -328 -45 -355 -23
-26 6 -56 91 -95 41 -19 74 -37 74 -41 0 -3 -28 -36 -62 -73 -81 -85 -128
-174 -135 -251 -5 -55 -4 -61 23 -88 16 -16 54 -38 85 -50 79 -29 336 -71 518
-83 310 -22 1092 34 1219 86 38 16 42 43 16 119 -15 44 -15 49 0 64 19 20 98
30 241 31 111 1 239 26 270 51 21 17 19 84 -4 128 -25 48 -102 135 -144 161
-64 39 -184 70 -387 100 -113 16 -217 34 -232 40 -34 13 -37 31 -5 31 36 0 65
11 71 26 10 25 25 304 46 819 13 321 25 524 35 568 19 90 51 146 140 245 70
80 115 150 115 184 0 8 29 48 66 89 79 90 144 184 144 210 0 11 -5 28 -12 38
-9 15 -6 25 20 57 39 49 90 185 98 262 3 31 14 100 24 152 24 122 41 348 43
570 1 188 -16 302 -63 408 -23 50 -39 152 -40 242 0 87 -25 162 -111 342 -69
141 -79 169 -69 187 6 12 15 21 20 21 25 0 110 236 110 306 0 34 -38 40 -86
15 -42 -23 -89 -27 -99 -10 -4 6 14 41 39 77 25 37 46 77 46 89 0 12 -14 35
-31 51 -25 23 -29 33 -24 55 8 29 58 77 80 77 23 0 153 137 186 195 21 38 49
68 93 99 85 61 156 159 156 218 0 13 -16 76 -37 142 l-37 118 32 29 c19 17 49
31 73 35 25 4 50 16 61 29 18 20 24 22 56 13 21 -6 73 -32 117 -58 44 -26 108
-59 143 -73 34 -14 111 -58 170 -98 120 -80 332 -186 436 -218 38 -12 84 -30
102 -42 42 -26 191 -63 336 -84 99 -15 120 -15 144 -4 36 18 74 74 74 109 0
32 -14 47 -110 110 -41 27 -104 72 -140 99 -35 28 -89 64 -120 81 -222 126
-302 169 -425 229 -171 83 -345 154 -530 216 -136 45 -185 73 -185 103 0 9 14
37 31 63 22 35 33 68 39 116 10 79 31 103 90 103 85 0 175 53 243 142 89 118
113 219 68 292 -13 20 -71 87 -128 149 -142 151 -217 246 -238 302 -15 37 -17
64 -12 148 9 144 23 187 72 212 47 25 51 35 30 75 -13 25 -18 87 -25 318 -15
447 -34 572 -100 647 -9 11 -20 31 -23 45 -10 40 -73 114 -166 196 -159 139
-301 220 -454 260 -90 23 -136 48 -213 116 -94 83 -175 134 -388 244 l-181 93
-570 5 c-336 3 -595 1 -630 -4z m2075 -559 c89 -30 156 -77 268 -185 150 -145
221 -253 256 -391 19 -76 59 -376 57 -433 0 -24 -12 -84 -26 -135 -35 -132
-55 -295 -62 -508 l-6 -186 34 -63 c46 -87 152 -206 229 -257 96 -64 130 -104
130 -153 0 -23 -8 -57 -19 -78 -10 -20 -25 -56 -32 -80 -9 -32 -23 -49 -58
-72 -68 -46 -107 -53 -184 -35 -46 11 -73 12 -91 5 -23 -8 -26 -15 -26 -59 0
-73 -37 -222 -72 -290 -12 -22 -16 -23 -78 -17 -36 3 -135 19 -220 34 l-155
28 2 62 c2 48 0 62 -11 62 -23 0 -67 -60 -107 -145 -47 -101 -54 -134 -35
-160 21 -29 46 -10 65 51 11 32 22 50 34 52 10 2 44 -13 75 -34 66 -43 282
-255 282 -276 0 -8 -14 -36 -32 -63 -40 -60 -47 -102 -47 -298 l-1 -157 -65
-32 c-68 -32 -115 -76 -115 -107 0 -10 -16 -50 -36 -89 -43 -86 -130 -179
-199 -211 -102 -47 -125 -94 -53 -108 30 -6 47 -16 57 -34 13 -24 12 -31 -17
-94 -18 -37 -35 -85 -38 -107 -8 -47 -34 -61 -95 -52 -66 11 -67 28 -8 162
l23 53 -22 42 c-53 100 -374 410 -599 579 -76 57 -186 140 -244 185 -59 44
-138 99 -175 121 -38 22 -105 71 -149 108 -44 37 -95 73 -113 81 -19 8 -93 49
-165 92 -275 164 -559 299 -727 346 -163 46 -219 88 -204 155 4 19 8 118 8
219 l1 185 125 72 c166 96 242 165 271 245 12 34 29 63 37 66 30 12 107 -40
185 -122 93 -100 146 -140 252 -193 149 -73 271 -90 318 -44 26 27 17 61 -41
147 -55 82 -73 88 -132 49 -74 -49 -80 -47 -312 100 -51 33 -136 81 -188 108
-111 56 -106 44 -116 245 -9 169 1 207 67 267 61 55 118 71 257 71 122 0 135
-9 145 -96 14 -115 95 -119 114 -5 11 73 70 88 233 62 114 -19 120 -15 120 77
0 76 -9 97 -42 97 -31 0 -40 46 -36 175 5 143 21 186 78 215 65 33 102 72 133
140 37 82 48 94 112 124 97 44 283 177 396 282 36 34 81 66 100 72 19 6 101
23 183 37 172 30 203 41 259 91 39 36 40 36 111 32 39 -3 100 -15 136 -27z
m-2521 -2951 c142 -72 328 -174 412 -227 85 -53 225 -136 313 -184 87 -49 183
-111 215 -138 78 -67 206 -158 266 -188 28 -14 65 -39 83 -54 18 -16 52 -39
75 -50 46 -24 92 -58 177 -133 30 -26 80 -65 110 -86 30 -21 107 -84 170 -139
63 -56 118 -101 122 -101 14 0 89 -73 104 -101 20 -40 18 -66 -15 -136 -38
-79 -52 -87 -143 -74 -80 11 -103 4 -118 -35 -5 -13 -15 -24 -22 -24 -8 0 -52
39 -98 86 -47 47 -95 90 -107 94 -12 5 -31 27 -42 49 -12 23 -47 60 -83 88
-35 26 -99 81 -143 122 -44 41 -123 108 -175 150 -52 41 -125 101 -162 132
-236 202 -887 656 -1090 760 -56 29 -122 72 -146 95 -43 41 -44 45 -38 85 9
57 46 139 62 139 7 0 130 -59 273 -130z m3661 -415 c28 -30 21 -80 -16 -125
-23 -27 -32 -30 -80 -30 -30 0 -70 7 -89 14 -33 14 -35 18 -35 60 0 83 74 135
162 113 20 -5 46 -20 58 -32z m-3740 -1424 c0 -10 -25 -55 -55 -101 -30 -45
-59 -99 -65 -119 -22 -81 -6 -276 31 -362 25 -58 68 -98 145 -136 61 -30 89
-61 124 -136 15 -31 36 -57 60 -72 20 -13 91 -71 156 -130 116 -104 162 -132
289 -181 31 -12 51 -27 53 -38 4 -17 -1 -18 -34 -14 -60 9 -148 45 -212 88
-84 57 -289 246 -371 343 -45 54 -88 93 -119 110 -110 60 -143 124 -174 342
-24 167 -20 188 50 296 41 62 102 129 118 129 2 0 4 -8 4 -19z m2323 -69 c9
-10 27 -42 40 -72 34 -76 109 -318 105 -337 -4 -20 -140 121 -197 206 -23 34
-58 72 -77 84 -37 24 -53 60 -37 86 27 45 136 67 166 33z m-272 -75 c71 -61
140 -136 224 -242 21 -27 50 -61 63 -75 37 -38 121 -165 148 -224 13 -28 47
-163 75 -301 l52 -250 0 -210 c1 -116 -5 -253 -12 -305 -13 -98 -54 -210 -76
-210 -7 0 -44 37 -83 83 -112 131 -257 265 -399 367 -191 137 -309 208 -385
231 -75 23 -103 47 -95 81 4 13 31 63 62 111 68 107 181 321 230 437 50 116
62 179 75 365 12 184 15 205 34 205 7 0 46 -28 87 -63z m-505 -1133 c21 -14
57 -43 79 -63 65 -61 121 -103 295 -221 225 -153 341 -241 433 -330 142 -135
160 -199 89 -318 -22 -37 -56 -101 -76 -142 -20 -42 -62 -109 -93 -150 -31
-41 -124 -174 -206 -295 -83 -121 -176 -254 -208 -295 -64 -83 -102 -159 -93
-184 8 -21 39 -29 62 -17 11 6 27 27 37 48 10 21 24 46 33 56 16 18 47 23 56
8 3 -5 -1 -73 -10 -152 -18 -169 -23 -537 -10 -860 l9 -226 -39 -7 c-21 -3
-124 -9 -228 -13 l-189 -6 6 389 c8 505 29 799 77 1068 23 124 26 256 8 274
-19 19 -56 14 -72 -10 -17 -28 -31 -91 -51 -228 -34 -227 -45 -391 -55 -824
-7 -248 -15 -550 -18 -671 l-7 -220 -380 0 c-209 0 -401 4 -426 8 -86 14 -83
4 -60 237 46 465 53 858 21 1230 -29 338 -33 353 -90 415 -26 27 -53 66 -59
86 -6 20 -34 59 -62 85 -68 66 -85 98 -94 169 -4 33 -24 107 -46 164 -37 100
-46 158 -33 209 4 12 14 22 23 22 25 0 123 -78 156 -124 35 -48 41 -112 13
-143 -21 -23 -23 -53 -4 -53 29 0 89 78 138 180 27 58 76 159 109 225 33 68
87 207 124 320 35 110 74 214 84 232 23 37 34 40 201 47 198 9 396 45 462 86
42 26 47 25 94 -6z m-955 -47 c19 -12 35 -30 37 -39 2 -9 -20 -50 -47 -91 -45
-66 -62 -107 -45 -107 3 0 22 14 44 31 50 40 76 36 72 -11 -4 -53 -68 -250
-125 -389 -51 -125 -97 -191 -135 -191 -25 0 -142 126 -142 155 0 14 43 82
110 172 98 132 126 183 102 183 -12 0 -82 -76 -165 -181 -95 -120 -205 -225
-246 -234 -38 -8 -65 6 -81 44 -22 53 14 105 239 351 342 375 315 352 382 307z
m-1196 -207 c11 -17 -5 -32 -21 -19 -8 6 -14 15 -14 20 0 12 27 11 35 -1z m49
-251 c16 -18 36 -29 51 -29 44 0 149 -41 180 -70 17 -15 46 -36 65 -45 19 -10
82 -50 140 -89 58 -39 117 -77 133 -84 34 -15 35 -30 1 -38 -35 -9 -72 10
-178 95 -50 38 -102 73 -117 76 -15 3 -53 26 -84 51 -32 24 -64 44 -72 44 -20
0 -129 47 -174 76 -42 26 -49 40 -21 46 28 6 49 -2 76 -33z m2197 -2755 c17
-8 81 -28 142 -44 84 -21 116 -34 127 -50 45 -66 49 -68 152 -62 53 2 107 2
120 -1 50 -13 66 -121 26 -172 -23 -30 -110 -75 -144 -75 -18 0 -20 6 -20 48
1 80 -55 135 -84 82 -17 -31 -37 -24 -47 16 -12 55 -29 61 -111 41 -124 -30
-311 -17 -344 24 -40 48 -13 178 42 207 30 15 97 9 141 -14z m-622 -209 c23
-8 57 -25 74 -37 27 -19 45 -23 111 -23 77 0 79 -1 107 -35 16 -19 29 -42 29
-52 0 -25 -73 -102 -116 -123 -42 -20 -138 -18 -404 8 -280 28 -329 41 -317
88 10 37 81 140 108 155 30 16 113 18 141 3 12 -6 32 -24 46 -40 35 -42 55
-37 86 21 24 44 31 50 60 50 19 0 52 -7 75 -15z m1466 -59 c24 -17 13 -46 -18
-46 -29 0 -52 24 -43 45 7 19 36 19 61 1z m-713 -108 c41 -34 17 -90 -57 -134
-36 -21 -64 -28 -120 -32 -99 -6 -102 5 -26 79 86 84 165 117 203 87z m212
-84 c32 -31 38 -52 16 -59 -28 -9 -60 12 -60 39 0 38 18 47 44 20z m-646 -127
c2 -12 -3 -17 -17 -17 -12 0 -21 6 -21 13 0 31 32 34 38 4z"/>
<path d="M4065 9749 c-96 -16 -327 -78 -373 -100 -114 -53 -570 -575 -534
-611 24 -24 80 19 272 211 130 131 212 205 247 224 36 19 103 38 225 62 189
37 340 78 376 101 13 8 28 26 34 40 10 20 8 29 -9 52 -19 25 -25 27 -104 29
-46 0 -106 -3 -134 -8z"/>
<path d="M3946 8857 c-21 -23 -36 -50 -40 -75 -14 -90 -99 -140 -260 -153 -54
-4 -104 -13 -110 -19 -8 -8 -6 -20 8 -43 35 -60 45 -82 61 -142 22 -81 32
-290 15 -339 -7 -22 -8 -42 -3 -47 5 -5 36 -4 73 2 116 19 282 -17 315 -67 23
-35 53 -31 70 9 8 19 32 46 56 62 24 15 76 54 117 87 41 32 92 68 113 79 22
10 39 22 39 25 0 2 -18 39 -41 82 l-41 77 7 120 7 120 -64 1 c-75 0 -156 32
-193 75 -14 18 -26 48 -30 77 -9 76 -18 97 -43 100 -16 3 -33 -7 -56 -31z m92
-267 c18 -11 35 -27 39 -36 3 -8 -11 -50 -31 -93 -39 -84 -43 -121 -21 -195
20 -67 20 -152 -1 -160 -56 -22 -157 3 -214 52 -61 51 -85 104 -83 182 2 104
47 188 131 241 57 36 129 40 180 9z"/>
<path d="M1934 8721 c-58 -27 -84 -63 -84 -121 0 -29 6 -52 14 -59 11 -10 19
-4 38 31 31 58 56 68 165 68 50 0 94 4 97 8 9 15 -33 72 -60 82 -41 16 -125
11 -170 -9z"/>
<path d="M2020 8465 c-8 -10 -11 -35 -8 -72 5 -63 30 -93 77 -93 14 -1 51 -9
81 -20 162 -57 198 29 38 91 -31 12 -80 41 -108 65 -57 49 -62 51 -80 29z"/>
<path d="M4498 7733 c-8 -10 -32 -44 -52 -75 -25 -38 -54 -68 -89 -89 -64 -39
-97 -68 -97 -87 0 -34 114 22 192 96 54 50 93 121 83 152 -8 25 -17 25 -37 3z"/>
<path d="M2368 7636 c-25 -19 -38 -60 -38 -125 0 -115 47 -226 107 -254 22
-10 28 -8 44 11 14 18 17 34 13 75 -24 262 -36 307 -81 307 -15 0 -36 -6 -45
-14z"/>
<path d="M3709 7596 c-62 -46 -106 -101 -129 -164 -23 -62 -25 -85 -7 -101 19
-15 37 6 81 101 20 42 56 101 81 131 25 31 45 58 45 61 0 14 -29 3 -71 -28z"/>
<path d="M2529 3663 c-8 -19 -9 -110 -5 -287 3 -143 8 -261 10 -264 8 -7 44
17 50 34 13 35 26 205 26 356 0 129 -3 159 -16 172 -24 25 -53 20 -65 -11z"/>
<path d="M9340 10630 c-339 -11 -395 -26 -525 -140 -79 -69 -106 -86 -179
-107 -66 -19 -255 -109 -328 -156 -96 -61 -135 -77 -248 -102 -125 -28 -150
-39 -215 -95 -57 -50 -69 -56 -180 -96 -229 -81 -273 -104 -355 -184 -72 -71
-99 -124 -86 -174 3 -14 29 -51 57 -83 39 -44 50 -64 46 -83 -2 -14 -13 -65
-23 -113 -18 -87 -18 -88 1 -125 23 -41 79 -84 110 -81 38 3 46 -1 93 -46 53
-51 103 -71 156 -61 43 8 48 33 9 41 -58 12 -78 21 -81 38 -5 23 35 37 107 37
l58 0 7 -37 c3 -21 6 -83 6 -138 0 -54 7 -185 15 -290 20 -239 13 -317 -39
-434 -41 -93 -77 -150 -146 -231 -69 -81 -80 -107 -80 -193 0 -134 46 -230
137 -284 44 -26 56 -28 151 -28 131 0 143 -13 101 -105 -41 -89 -22 -152 57
-191 34 -16 53 -19 82 -14 75 15 185 10 231 -11 l43 -19 -40 -51 c-55 -70 -72
-106 -72 -154 0 -61 27 -83 129 -103 46 -9 86 -18 87 -20 2 -2 10 -64 19 -138
19 -164 28 -193 68 -223 58 -43 119 -56 316 -67 195 -10 354 -6 457 13 68 12
100 7 135 -21 30 -24 22 -42 -55 -129 -40 -45 -60 -79 -71 -117 -22 -75 -89
-462 -88 -510 1 -48 72 -233 121 -313 43 -71 49 -107 28 -169 -24 -71 -64
-113 -168 -178 -51 -31 -102 -65 -113 -74 -11 -10 -67 -44 -125 -76 -58 -31
-125 -74 -148 -94 -80 -66 -83 -67 -222 -74 -138 -7 -314 -28 -445 -52 -169
-31 -175 -36 -178 -139 -3 -121 35 -141 250 -130 95 5 134 4 130 -4 -4 -5 -46
-32 -94 -59 -99 -55 -195 -143 -212 -196 -16 -48 4 -78 74 -112 l52 -26 69 26
c38 14 93 39 121 55 29 17 55 30 57 30 3 0 8 -36 12 -79 l6 -80 62 -6 c33 -3
120 -7 193 -8 l131 -2 92 63 c50 35 106 70 125 78 46 19 109 18 126 -2 10 -13
25 -15 67 -11 41 4 54 2 59 -9 3 -8 -6 -52 -21 -98 -30 -97 -32 -126 -11 -166
20 -38 47 -52 93 -48 34 2 37 1 35 -24 -1 -14 -45 -118 -98 -230 -54 -111
-117 -250 -142 -308 -55 -125 -203 -541 -210 -588 -7 -42 55 -172 95 -200 37
-27 214 -71 325 -81 164 -16 261 -53 336 -130 58 -59 180 -140 291 -192 47
-23 100 -48 119 -57 29 -15 40 -31 74 -112 76 -184 72 -162 71 -420 -1 -236
-15 -383 -69 -702 -20 -118 -28 -131 -88 -157 -71 -29 -205 -135 -213 -168 -6
-21 -1 -31 20 -50 33 -28 50 -29 136 -2 73 22 121 22 128 1 2 -7 -30 -47 -72
-90 -42 -42 -76 -82 -76 -88 0 -26 52 -54 99 -54 122 0 342 56 475 120 34 16
99 62 145 102 136 119 181 149 216 146 l30 -3 -4 -112 c-3 -109 -2 -113 23
-137 21 -22 34 -26 84 -26 93 0 99 8 112 170 18 228 30 266 106 357 97 113
117 185 68 242 -14 17 -30 48 -36 68 -6 21 -19 50 -29 65 -11 14 -19 37 -19
50 0 12 -18 61 -39 106 -33 71 -38 89 -30 115 14 48 37 238 44 362 3 61 8 136
11 168 l6 58 322 -3 321 -3 68 27 c271 109 351 203 303 361 -12 41 -12 47 3
61 25 22 150 52 254 61 103 8 117 18 117 81 0 61 -27 126 -91 219 -31 44 -90
139 -133 210 -42 72 -110 171 -151 220 -116 138 -175 218 -175 236 0 25 32 48
168 124 69 39 130 78 136 87 17 27 -70 186 -180 329 -115 151 -174 237 -174
257 0 37 189 246 239 263 17 6 46 36 78 83 28 40 99 131 159 202 149 179 191
237 233 324 34 71 36 80 36 175 -1 119 -11 144 -148 374 -88 146 -138 259
-158 353 -6 29 -25 80 -41 113 -17 33 -39 87 -49 121 -10 33 -28 69 -40 80
-12 10 -75 94 -140 185 -120 170 -165 219 -200 219 -40 0 -135 57 -211 127
-44 40 -107 87 -141 105 -54 29 -63 39 -78 79 -9 26 -40 81 -70 124 l-54 77 3
83 c2 69 -1 86 -17 106 l-19 24 -25 -23 c-14 -13 -32 -22 -40 -20 -8 1 -36 32
-63 67 -62 81 -76 87 -72 31 3 -57 -16 -72 -234 -184 -420 -216 -530 -286
-898 -571 -258 -199 -327 -259 -382 -328 l-31 -38 39 -40 c22 -23 58 -52 81
-66 48 -28 87 -73 190 -218 85 -121 104 -139 135 -132 33 9 213 147 348 267
63 56 165 141 225 189 61 47 229 179 374 294 296 234 297 235 348 252 65 23
129 -9 273 -135 36 -32 100 -80 142 -109 114 -75 205 -175 325 -356 71 -105
107 -174 122 -233 8 -27 27 -56 53 -81 31 -30 42 -50 49 -88 13 -69 77 -198
165 -328 75 -114 117 -199 128 -265 5 -27 0 -49 -23 -97 -40 -85 -125 -208
-181 -264 -25 -25 -73 -93 -107 -150 -106 -181 -303 -428 -491 -613 -66 -65
-73 -69 -106 -63 -72 12 -353 170 -474 267 -50 40 -57 51 -60 85 -4 55 43 130
174 280 58 66 133 158 167 205 34 46 76 99 94 117 l31 33 170 0 c94 0 177 3
186 6 22 8 21 60 -1 69 -10 4 -84 11 -166 16 -200 13 -231 26 -162 69 73 45
74 100 6 237 -74 146 -241 343 -291 343 -74 0 -39 -133 66 -250 30 -33 54 -67
54 -75 0 -8 27 -47 60 -86 69 -82 82 -115 55 -136 -11 -7 -26 -13 -35 -13 -27
0 -48 -31 -70 -101 -11 -36 -37 -93 -59 -126 l-39 -61 -124 -6 c-67 -3 -456
-9 -864 -12 l-740 -6 -61 75 c-34 42 -64 86 -68 99 -4 13 -23 46 -42 74 -19
28 -40 69 -48 90 -9 29 -24 46 -56 64 -29 17 -52 41 -67 70 -32 61 -25 108 22
160 57 63 53 109 -20 248 -81 154 -74 203 32 217 95 12 154 71 154 151 0 23
-11 72 -26 109 -14 38 -28 97 -31 131 l-6 64 84 86 c115 119 197 183 387 307
89 59 211 142 270 186 59 43 132 90 162 104 59 26 139 91 128 102 -11 12 -49
-2 -113 -41 -33 -20 -101 -57 -150 -84 -121 -63 -263 -152 -317 -197 -23 -20
-59 -42 -78 -50 -19 -8 -51 -31 -71 -51 -20 -21 -56 -49 -80 -64 -24 -15 -75
-55 -114 -89 -38 -34 -101 -83 -138 -109 -85 -61 -163 -77 -307 -64 -138 12
-226 10 -305 -5 -87 -17 -158 -5 -236 42 -79 47 -99 83 -99 176 0 95 -18 133
-85 183 -57 43 -63 55 -64 121 -1 51 23 87 57 87 11 0 27 9 36 19 26 29 12 74
-39 127 l-43 45 -60 -7 c-56 -6 -64 -4 -123 29 -35 19 -89 40 -119 47 -30 7
-61 17 -67 23 -8 5 -13 32 -13 63 0 29 -6 65 -12 80 -12 25 -10 29 31 64 l43
37 -48 17 c-60 20 -108 20 -168 0 -134 -46 -236 22 -236 159 0 69 15 107 63
165 48 57 145 230 174 310 18 50 23 83 23 165 0 108 -18 319 -45 526 -25 189
-2 329 82 495 71 142 105 173 211 195 80 17 131 14 139 -6 10 -26 22 -31 63
-26 31 4 42 0 74 -27 20 -18 46 -45 57 -62 25 -35 14 -54 -37 -64 -36 -7 -44
-18 -18 -28 28 -11 67 -6 131 15 57 20 70 21 132 10 38 -6 77 -8 86 -5 18 7
45 54 45 79 0 32 30 13 75 -49 49 -66 86 -99 131 -116 20 -8 25 -15 20 -30 -3
-11 -9 -29 -12 -40 -5 -15 0 -21 21 -26 19 -5 43 2 87 25 34 17 65 31 69 31
17 0 10 -95 -8 -120 -10 -14 -20 -47 -23 -74 -7 -69 -27 -79 -88 -44 -166 97
-377 191 -499 224 -86 23 -392 27 -462 6 -66 -20 -91 -51 -91 -110 0 -77 4
-79 189 -48 324 53 513 28 762 -101 59 -30 123 -68 143 -84 l36 -30 -3 -118
-2 -117 54 -110 c70 -141 75 -181 33 -267 -54 -109 -132 -162 -132 -90 0 35
32 106 65 145 28 33 32 58 11 58 -15 0 -196 -186 -196 -202 0 -5 13 -7 29 -3
24 5 32 2 41 -15 14 -27 15 -215 1 -268 -23 -83 -54 -56 -86 73 -22 89 -26 96
-66 109 -75 25 -123 205 -84 317 30 84 -5 122 -114 121 -139 -2 -235 54 -259
150 -23 92 -58 86 -87 -16 -13 -45 -27 -69 -64 -105 -61 -59 -132 -95 -172
-87 -16 3 -42 9 -59 12 -38 8 -48 -14 -27 -59 9 -17 23 -83 31 -146 18 -126
40 -220 62 -263 21 -41 17 -62 -21 -108 -42 -50 -44 -76 -10 -92 22 -10 30 -8
53 11 76 61 141 64 303 12 l93 -30 122 119 c67 66 130 120 139 120 36 0 74
-31 99 -82 14 -28 26 -57 26 -64 0 -24 93 -291 120 -344 16 -30 39 -65 52 -77
42 -39 129 -71 241 -87 110 -16 152 -31 178 -62 8 -9 37 -28 64 -40 69 -33
164 -32 274 1 89 26 94 26 245 -14 101 -27 225 -38 254 -22 13 7 22 21 22 35
0 27 45 79 63 73 6 -2 23 -23 38 -48 l26 -44 56 1 57 1 -20 -32 c-11 -18 -20
-36 -20 -40 0 -26 210 59 472 192 82 41 111 62 127 88 22 39 162 153 194 159
12 3 67 7 122 9 l100 5 37 -35 c52 -50 61 -39 56 70 l-3 90 47 25 c32 16 52
35 64 59 18 39 41 169 32 179 -4 3 -18 -2 -32 -11 l-26 -17 0 36 c0 20 7 52
14 71 13 29 20 35 46 35 17 0 41 5 52 11 15 8 32 8 63 -1 34 -10 47 -9 66 1
24 13 23 13 -14 20 -21 3 -46 13 -54 22 -15 15 -15 17 3 22 10 3 53 20 94 36
173 70 262 99 307 99 l47 0 -39 -41 c-53 -55 -128 -96 -197 -110 -59 -12 -98
-32 -86 -44 16 -16 286 65 311 92 8 10 19 33 24 52 14 53 52 76 131 77 l67 1
-3 76 c-3 66 1 85 27 149 33 78 38 103 72 353 27 204 23 325 -16 440 -34 101
-69 167 -117 216 -45 46 -91 52 -140 17 -20 -14 -35 -18 -43 -12 -7 5 -34 26
-61 46 -60 46 -230 131 -304 152 -30 9 -80 31 -110 50 -30 18 -73 39 -95 46
-27 9 -64 37 -115 89 -41 42 -97 92 -123 110 -66 45 -216 114 -307 141 -97 29
-126 44 -299 152 -204 128 -249 147 -379 158 -152 12 -1003 19 -1282 10z
m-1920 -891 c0 -48 -57 -139 -86 -139 -40 0 -18 77 39 137 32 34 47 35 47 2z
m25 -396 c14 -13 16 -32 13 -94 -2 -43 -8 -83 -15 -90 -36 -36 -90 51 -78 128
10 66 45 91 80 56z m5215 -124 c0 -11 -4 -17 -10 -14 -5 3 -10 13 -10 21 0 8
5 14 10 14 6 0 10 -9 10 -21z m-4107 -729 c68 -25 134 -82 158 -134 25 -55 24
-141 -2 -210 -31 -84 -88 -124 -210 -146 -67 -12 -99 -7 -99 18 0 9 16 63 36
120 43 124 41 158 -12 258 -39 74 -40 82 -16 100 25 19 83 17 145 -6z m-283
-175 c0 -13 -7 -43 -17 -66 -15 -38 -17 -40 -30 -23 -28 38 -10 114 27 114 15
0 20 -7 20 -25z m2943 -212 l32 -18 -28 -3 c-28 -3 -57 12 -57 29 0 14 18 11
53 -8z m24 -140 c-3 -10 -5 -4 -5 12 0 17 2 24 5 18 2 -7 2 -21 0 -30z m483
-104 c0 -14 -47 -32 -64 -26 -24 9 -19 35 7 39 29 5 57 -2 57 -13z m-1122
-264 c16 -48 7 -97 -16 -93 -21 4 -46 80 -38 114 10 37 38 27 54 -21z m-1211
19 c3 -8 -2 -23 -11 -32 -15 -15 -17 -15 -32 0 -21 21 -11 48 16 48 11 0 23
-7 27 -16z m177 -70 c9 -8 14 -20 11 -24 -14 -23 -122 -37 -172 -24 -36 10
-27 24 15 24 20 0 53 9 72 19 43 24 54 25 74 5z m257 -90 c56 -17 89 -38 89
-59 0 -20 -25 -25 -123 -24 -101 1 -153 14 -174 46 -12 18 -12 23 2 37 22 21
133 21 206 0z m323 -47 c9 -15 7 -21 -8 -32 -35 -26 -74 13 -44 43 16 16 38
12 52 -11z m232 11 c13 -21 -44 -59 -84 -56 -51 4 -51 25 0 48 49 22 74 25 84
8z m895 -210 c47 -57 179 -231 179 -237 0 -13 -43 -48 -140 -112 -243 -161
-710 -522 -868 -671 -68 -64 -140 -124 -160 -133 -21 -10 -53 -36 -73 -58
l-36 -42 -42 29 c-51 36 -231 222 -268 277 l-27 42 60 56 c72 67 451 358 572
439 121 81 265 167 417 249 176 96 347 183 358 183 5 0 17 -10 28 -22z m-1745
-2277 c57 -26 124 -88 145 -136 23 -50 26 -180 4 -231 -8 -19 -44 -70 -81
-112 -36 -42 -91 -115 -121 -162 -58 -88 -91 -130 -104 -130 -11 0 -101 125
-174 245 -85 137 -144 259 -147 305 -3 29 1 36 27 49 17 8 84 48 150 89 66 41
134 81 150 88 43 19 103 17 151 -5z m1904 -99 c0 -38 -214 -258 -282 -291 -56
-26 -186 -39 -515 -50 -154 -6 -277 -14 -302 -22 -37 -11 -49 -10 -94 7 -43
16 -79 19 -204 19 -161 0 -189 -7 -167 -43 18 -28 74 -40 235 -53 148 -11 617
-7 872 7 67 4 112 3 119 -4 6 -6 1 -30 -15 -68 -14 -33 -30 -86 -36 -119 -7
-40 -23 -78 -47 -112 -48 -70 -163 -177 -222 -207 -62 -32 -123 -86 -147 -130
l-19 -35 24 -27 c51 -54 95 -64 189 -42 34 8 55 8 61 2 7 -7 3 -85 -12 -232
l-22 -222 -74 0 c-56 0 -96 7 -166 31 -105 35 -490 148 -651 191 -71 19 -156
32 -240 39 -85 6 -135 14 -144 23 -9 10 -15 53 -18 142 -7 178 13 297 82 500
53 153 66 214 46 214 -11 0 -101 -186 -125 -256 -9 -27 -27 -98 -41 -158 -28
-127 -45 -151 -104 -151 -58 0 -74 19 -67 76 9 70 40 151 97 258 73 137 122
205 219 306 114 118 122 135 128 262 l5 103 576 -3 c590 -2 638 0 946 42 84
12 115 12 115 3z m-2474 -214 c83 -90 247 -368 284 -481 9 -30 9 -41 0 -52
-32 -39 -77 1 -194 169 -136 195 -195 343 -154 384 19 19 32 15 64 -20z m-388
-95 c-10 -2 -26 -2 -35 0 -10 3 -2 5 17 5 19 0 27 -2 18 -5z m-320 -39 c51
-35 1 -92 -89 -100 -69 -7 -109 7 -109 40 0 29 17 44 72 61 58 18 99 18 126
-1z m545 -6 c28 -22 67 -81 77 -119 6 -20 46 -87 90 -150 44 -62 80 -119 80
-126 0 -19 -268 -143 -271 -125 -1 4 0 19 1 35 2 34 -6 34 -113 -3 -48 -16
-94 -30 -102 -30 -29 0 -28 32 5 100 55 114 33 122 -141 52 -164 -67 -250 -80
-257 -39 -6 28 43 82 95 107 26 12 72 38 101 58 72 49 128 50 202 4 60 -38
136 -57 186 -48 53 11 41 32 -39 70 -57 28 -78 43 -93 71 -17 33 -22 36 -49
29 -77 -20 -220 17 -220 56 0 16 -6 16 185 9 79 -3 89 -1 145 28 66 35 92 40
118 21z m2410 -214 c18 -9 50 -31 72 -49 55 -44 131 -91 257 -160 114 -62 152
-90 143 -106 -10 -16 -69 -10 -100 11 -16 11 -41 20 -55 20 -55 0 -232 103
-321 187 -58 54 -71 75 -63 97 8 20 27 20 67 0z m18 -205 c32 -17 77 -47 100
-67 24 -21 93 -57 168 -88 l126 -53 3 -63 c4 -77 -10 -135 -44 -185 -21 -32
-24 -45 -19 -84 8 -55 -3 -66 -46 -49 -39 17 -52 4 -51 -52 1 -62 -6 -78 -33
-78 -24 0 -59 35 -70 71 -4 10 -15 19 -25 19 -20 0 -40 -50 -40 -101 0 -73
-41 -113 -80 -81 -16 14 -22 38 -31 137 -12 129 -23 160 -63 167 -44 9 -63
-15 -76 -94 -16 -100 -47 -203 -66 -219 -14 -11 -18 -10 -30 6 -19 25 -18 65
6 240 34 250 27 294 -42 281 -98 -18 -104 -18 -121 -1 -24 23 -8 49 40 63 44
13 191 128 231 180 44 57 70 82 88 82 9 0 42 -14 75 -31z m757 -44 c16 -13 35
-39 43 -57 7 -18 25 -49 41 -68 15 -19 40 -67 56 -106 16 -38 48 -100 71 -137
39 -62 41 -68 28 -88 -22 -31 -72 -62 -220 -138 -232 -119 -483 -207 -533
-187 -16 7 -8 18 62 84 44 43 88 88 97 102 8 14 19 59 22 100 4 47 16 94 31
125 13 28 28 83 33 124 10 79 31 118 72 137 95 44 105 51 127 92 13 23 27 42
32 42 5 0 22 -11 38 -25z m-2503 -589 c9 -18 26 -38 38 -44 12 -6 96 -25 187
-42 312 -58 433 -88 657 -163 204 -69 228 -72 653 -72 386 0 573 14 683 50
115 38 164 59 211 91 28 18 61 34 72 34 32 0 65 -44 139 -188 36 -70 92 -163
125 -207 32 -44 71 -100 86 -125 15 -25 56 -89 91 -143 35 -55 62 -104 60
-111 -3 -7 -40 -23 -84 -35 -228 -65 -275 -107 -239 -212 9 -24 16 -58 16 -75
0 -60 -91 -118 -256 -161 -60 -15 -105 -17 -334 -15 -287 3 -373 -5 -476 -44
-122 -46 -200 -59 -344 -58 -152 0 -250 16 -429 70 -150 46 -251 88 -297 125
-21 16 -74 40 -120 54 -45 14 -97 36 -115 50 -19 13 -52 33 -74 44 -22 10 -56
34 -75 51 -103 95 -160 117 -338 130 -191 15 -192 15 -192 59 0 54 26 148 59
211 15 30 31 76 34 102 4 26 18 74 31 105 13 32 29 87 36 122 6 34 25 102 42
149 36 104 118 282 129 282 4 0 15 -15 24 -34z m1643 -178 c3 -36 -20 -74 -39
-63 -12 8 -11 62 2 86 15 29 34 18 37 -23z m-27 -1457 c34 -34 34 -34 14 -126
-8 -39 -18 -151 -21 -250 -7 -205 -5 -216 80 -400 27 -59 46 -115 46 -136 0
-43 -17 -60 -155 -153 -55 -36 -163 -112 -240 -166 -175 -125 -242 -160 -306
-160 -84 0 -90 20 -42 148 12 34 23 72 23 83 0 12 20 58 45 104 42 76 48 98
74 247 31 179 40 205 73 210 27 4 35 30 15 49 -43 43 -65 156 -74 372 l-6 157
126 0 c74 0 128 -4 132 -10 3 -6 -3 -22 -14 -36 -40 -50 -20 -97 41 -97 60 0
93 88 48 128 -27 25 -25 34 13 50 53 23 95 19 128 -14z m-580 -63 c6 -12 15
-91 20 -177 5 -86 11 -171 14 -189 4 -18 6 -75 6 -125 0 -79 -7 -122 -56 -312
-69 -269 -87 -314 -147 -349 -24 -14 -55 -27 -68 -28 -23 -3 -25 0 -23 37 2
21 29 141 60 265 56 221 57 227 57 370 1 80 -3 197 -8 261 -11 144 -5 179 41
230 41 46 85 53 104 17z"/>
<path d="M10162 6438 c-45 -47 -63 -97 -52 -140 30 -106 169 -113 221 -10 23
45 13 78 -41 134 -56 58 -83 62 -128 16z"/>
<path d="M10897 1458 c-33 -12 -43 -44 -27 -93 21 -65 96 -72 129 -13 14 24
14 30 -1 61 -19 41 -60 58 -101 45z"/>
<path d="M10860 1130 c-40 -40 -8 -130 46 -130 30 0 73 21 97 48 17 19 17 21
-29 61 -52 46 -84 51 -114 21z"/>
<path d="M10857 842 c-24 -26 -22 -69 4 -83 29 -15 86 -3 99 22 9 16 6 25 -19
49 -34 34 -61 38 -84 12z"/>
<path d="M6007 9960 c-14 -16 -33 -51 -42 -77 -34 -95 -105 -233 -166 -324
-81 -121 -119 -194 -119 -231 0 -44 26 -86 68 -107 63 -32 82 -34 103 -15 27
24 24 46 -11 77 -54 49 -37 115 84 321 70 119 141 260 156 313 11 34 11 45 0
58 -19 23 -46 18 -73 -15z"/>
<path d="M6978 9688 c0 -7 -1 -67 -2 -133 l-1 -120 -61 -125 c-34 -69 -81
-153 -104 -187 -39 -59 -41 -66 -42 -137 0 -60 5 -83 23 -116 27 -48 74 -80
117 -80 50 0 62 -9 62 -45 0 -61 -28 -182 -55 -234 -50 -100 -97 -314 -137
-636 -25 -195 -27 -297 -14 -590 10 -217 3 -260 -48 -311 -42 -42 -93 -52
-326 -62 -212 -10 -243 -19 -259 -77 -24 -87 41 -201 157 -279 72 -47 152
-126 152 -149 0 -13 -21 -45 -74 -112 -34 -42 -28 -68 17 -73 33 -4 98 54 138
123 58 100 33 177 -75 232 -110 55 -266 183 -266 218 0 20 40 26 262 33 199 8
204 8 268 38 91 43 138 87 172 162 41 91 44 130 17 278 -66 370 8 969 162
1317 50 111 64 159 56 180 -10 27 -51 47 -126 62 -84 18 -107 30 -121 65 -16
39 11 122 94 288 98 193 116 242 116 306 0 58 -21 130 -47 158 -18 21 -52 24
-55 6z"/>
<path d="M6455 9454 c-11 -3 -39 -14 -62 -24 -22 -11 -115 -45 -204 -75 -183
-63 -251 -93 -257 -114 -8 -25 103 -6 258 44 80 26 165 48 190 48 41 2 45 0
48 -23 2 -18 -14 -52 -49 -105 -103 -157 -99 -145 -99 -346 0 -165 2 -186 30
-291 16 -62 47 -162 68 -223 114 -321 143 -422 144 -502 1 -65 -20 -93 -67
-93 -18 0 -52 -7 -76 -16 -24 -9 -78 -19 -119 -23 -167 -16 -500 -205 -500
-283 0 -43 35 -75 108 -99 91 -29 138 -54 192 -98 67 -56 95 -72 114 -65 41
16 4 114 -67 177 -51 45 -90 58 -150 51 -68 -8 -88 9 -57 49 32 41 73 66 152
93 40 14 105 41 143 60 74 35 207 74 259 74 47 1 107 32 150 80 l39 43 -6 86
c-4 54 -15 112 -31 156 -106 298 -132 385 -192 659 -27 124 -27 133 -16 236 7
58 21 144 33 191 19 77 32 107 107 252 22 42 23 50 11 62 -16 16 -64 26 -94
19z"/>
<path d="M11365 7540 c-12 -55 33 -145 56 -109 13 21 11 65 -5 104 -18 43 -42
45 -51 5z"/>
<path d="M11494 6433 c-45 -49 -149 -258 -164 -328 -14 -68 1 -110 40 -110 30
0 48 33 145 266 78 187 81 203 42 207 -22 3 -36 -5 -63 -35z"/>
<path d="M11874 4925 c-20 -78 136 -168 217 -125 46 25 14 69 -73 99 -30 10
-69 26 -86 35 -42 22 -51 20 -58 -9z"/>
<path d="M12062 4600 c-51 -5 -99 -14 -107 -20 -38 -32 3 -151 54 -158 30 -5
104 23 126 48 14 16 36 143 24 139 -2 -1 -46 -5 -97 -9z"/>
<path d="M11752 4343 c-22 -9 -42 -60 -42 -108 0 -35 6 -52 25 -70 31 -31 57
-31 110 0 54 31 75 76 54 114 -29 51 -101 83 -147 64z"/>
</g>
</svg>
