<?xml version="1.0" encoding="UTF-8"?>
<svg xmlns="http://www.w3.org/2000/svg" xmlns:xlink="http://www.w3.org/1999/xlink" width="95pt" height="80pt" viewBox="0 0 95 80" version="1.1">
<g id="surface1">
<path style=" stroke:none;fill-rule:nonzero;fill:rgb(0%,0%,0%);fill-opacity:1;" d="M 15.597656 0.0742188 C 14.324219 0.277344 12.476562 0.9375 11.765625 1.445312 C 11.027344 1.96875 9.375 3.65625 8.945312 4.328125 C 8.75 4.628906 8.089844 5.839844 7.492188 7.023438 C 6.882812 8.207031 6.179688 9.5625 5.929688 10.035156 C 5.304688 11.195312 5.113281 11.652344 5.113281 11.945312 C 5.113281 12.558594 6.210938 15.285156 7.378906 17.578125 C 7.875 18.558594 8.261719 19.417969 8.453125 20.011719 C 8.617188 20.519531 8.816406 21.03125 8.890625 21.15625 C 9.09375 21.492188 9.3125 22.195312 9.523438 23.195312 C 9.773438 24.398438 9.765625 24.460938 9.386719 24.917969 C 9.210938 25.125 9.027344 25.402344 8.980469 25.53125 C 8.929688 25.65625 8.855469 25.859375 8.816406 25.972656 C 8.757812 26.113281 8.617188 26.242188 8.351562 26.375 C 7.675781 26.710938 6.789062 27.648438 6.1875 28.644531 C 5.875 29.167969 5.867188 29.304688 6.113281 29.625 C 6.21875 29.761719 6.296875 29.957031 6.296875 30.050781 C 6.296875 30.230469 6.0625 30.644531 5.773438 30.953125 C 5.453125 31.289062 4.289062 33.429688 4.148438 33.933594 C 4.097656 34.097656 4.113281 34.246094 4.1875 34.425781 C 4.355469 34.839844 4.328125 34.9375 3.933594 35.191406 C 3.273438 35.617188 3.273438 35.632812 3.542969 36.328125 C 3.859375 37.128906 3.851562 37.28125 3.519531 37.332031 C 3.378906 37.355469 3.148438 37.382812 3.007812 37.40625 C 2.839844 37.4375 2.675781 37.542969 2.519531 37.714844 C 2.253906 38.019531 2.195312 38.164062 2.039062 38.820312 C 1.898438 39.453125 1.394531 40.597656 0.824219 41.609375 C 0.0234375 43.007812 -0.125 43.683594 0.183594 44.484375 C 0.257812 44.671875 0.332031 45.066406 0.355469 45.367188 C 0.386719 45.890625 0.378906 45.929688 0.191406 46.101562 C 0.0898438 46.207031 0 46.347656 0 46.421875 C 0 46.867188 1.238281 48.839844 1.628906 49.019531 C 2.460938 49.410156 2.652344 49.5 2.808594 49.554688 C 2.914062 49.597656 3.015625 49.71875 3.066406 49.875 C 3.140625 50.109375 3.207031 50.152344 3.703125 50.339844 C 4.0625 50.472656 4.320312 50.617188 4.421875 50.753906 C 4.773438 51.195312 4.933594 51.304688 5.4375 51.457031 C 6.15625 51.671875 6.246094 51.761719 6.210938 52.25 C 6.1875 52.464844 6.128906 52.707031 6.0625 52.773438 C 6.003906 52.847656 5.949219 53.058594 5.941406 53.246094 C 5.933594 53.433594 5.78125 54.097656 5.59375 54.734375 C 4.988281 56.839844 4.890625 57.800781 5.03125 60.578125 C 5.121094 62.441406 5.164062 62.621094 5.617188 62.933594 C 6.3125 63.421875 7.378906 63.617188 9.335938 63.617188 C 10.886719 63.609375 11.90625 63.503906 12.449219 63.273438 C 12.632812 63.199219 12.945312 63.101562 13.136719 63.054688 C 13.339844 63.011719 13.695312 62.890625 13.9375 62.792969 C 14.441406 62.578125 14.636719 62.5625 14.703125 62.726562 C 14.777344 62.914062 14.753906 70.246094 14.671875 72.15625 C 14.597656 73.96875 14.515625 74.609375 14.339844 74.8125 C 14.167969 75.007812 14.382812 75.234375 15.011719 75.523438 C 15.316406 75.667969 15.5625 75.800781 15.5625 75.832031 C 15.5625 75.855469 15.355469 76.101562 15.101562 76.378906 C 14.5 77.015625 14.152344 77.683594 14.101562 78.257812 C 14.0625 78.667969 14.070312 78.714844 14.273438 78.917969 C 14.390625 79.035156 14.671875 79.199219 14.902344 79.289062 C 15.488281 79.507812 17.390625 79.824219 18.738281 79.914062 C 21.035156 80.078125 26.832031 79.660156 27.773438 79.269531 C 28.054688 79.148438 28.082031 78.945312 27.890625 78.378906 C 27.78125 78.046875 27.78125 78.011719 27.890625 77.898438 C 28.03125 77.75 28.617188 77.675781 29.675781 77.667969 C 30.5 77.660156 31.449219 77.472656 31.679688 77.285156 C 31.832031 77.15625 31.820312 76.65625 31.648438 76.324219 C 31.464844 75.96875 30.890625 75.3125 30.582031 75.121094 C 30.105469 74.828125 29.21875 74.597656 27.714844 74.371094 C 26.875 74.25 26.105469 74.117188 25.996094 74.070312 C 25.742188 73.976562 25.71875 73.839844 25.957031 73.839844 C 26.222656 73.839844 26.4375 73.757812 26.484375 73.644531 C 26.558594 73.457031 26.667969 71.367188 26.824219 67.511719 C 26.921875 65.105469 27.007812 63.589844 27.082031 63.257812 C 27.222656 62.582031 27.460938 62.164062 28.121094 61.425781 C 28.640625 60.824219 28.972656 60.300781 28.972656 60.046875 C 28.972656 59.984375 29.1875 59.6875 29.460938 59.378906 C 30.046875 58.703125 30.527344 58 30.527344 57.804688 C 30.527344 57.722656 30.492188 57.597656 30.441406 57.523438 C 30.375 57.410156 30.394531 57.335938 30.589844 57.09375 C 30.878906 56.726562 31.253906 55.710938 31.316406 55.132812 C 31.335938 54.898438 31.417969 54.386719 31.492188 53.996094 C 31.671875 53.082031 31.796875 51.390625 31.8125 49.726562 C 31.820312 48.316406 31.691406 47.464844 31.34375 46.671875 C 31.175781 46.296875 31.054688 45.53125 31.046875 44.859375 C 31.046875 44.207031 30.863281 43.644531 30.226562 42.296875 C 29.714844 41.242188 29.640625 41.03125 29.714844 40.898438 C 29.757812 40.808594 29.824219 40.742188 29.863281 40.742188 C 30.046875 40.742188 30.675781 38.972656 30.675781 38.449219 C 30.675781 38.191406 30.394531 38.148438 30.039062 38.335938 C 29.730469 38.507812 29.378906 38.539062 29.304688 38.410156 C 29.277344 38.363281 29.410156 38.101562 29.59375 37.832031 C 29.78125 37.558594 29.9375 37.257812 29.9375 37.167969 C 29.9375 37.078125 29.832031 36.90625 29.707031 36.785156 C 29.523438 36.613281 29.492188 36.539062 29.527344 36.371094 C 29.589844 36.15625 29.957031 35.796875 30.121094 35.796875 C 30.292969 35.796875 31.253906 34.769531 31.5 34.335938 C 31.65625 34.050781 31.863281 33.828125 32.1875 33.59375 C 32.820312 33.140625 33.34375 32.402344 33.34375 31.960938 C 33.34375 31.863281 33.226562 31.394531 33.070312 30.898438 L 32.796875 30.015625 L 33.035156 29.796875 C 33.175781 29.671875 33.398438 29.566406 33.574219 29.535156 C 33.761719 29.507812 33.945312 29.417969 34.027344 29.316406 C 34.160156 29.167969 34.203125 29.152344 34.441406 29.21875 C 34.597656 29.265625 34.984375 29.460938 35.308594 29.65625 C 35.636719 29.851562 36.109375 30.097656 36.367188 30.203125 C 36.621094 30.308594 37.191406 30.636719 37.628906 30.9375 C 38.515625 31.535156 40.089844 32.328125 40.859375 32.570312 C 41.140625 32.660156 41.480469 32.792969 41.613281 32.882812 C 41.925781 33.078125 43.03125 33.355469 44.105469 33.511719 C 44.839844 33.625 44.992188 33.625 45.171875 33.542969 C 45.4375 33.40625 45.71875 32.988281 45.71875 32.726562 C 45.71875 32.484375 45.617188 32.375 44.90625 31.902344 C 44.601562 31.699219 44.132812 31.363281 43.867188 31.160156 C 43.609375 30.953125 43.207031 30.683594 42.976562 30.554688 C 41.332031 29.609375 40.742188 29.289062 39.828125 28.839844 C 38.5625 28.21875 37.273438 27.6875 35.902344 27.222656 C 34.894531 26.886719 34.53125 26.675781 34.53125 26.449219 C 34.53125 26.382812 34.632812 26.171875 34.761719 25.980469 C 34.921875 25.71875 35.003906 25.46875 35.050781 25.109375 C 35.125 24.519531 35.277344 24.339844 35.714844 24.339844 C 36.347656 24.339844 37.011719 23.941406 37.515625 23.277344 C 38.175781 22.390625 38.355469 21.636719 38.019531 21.089844 C 37.925781 20.941406 37.496094 20.4375 37.074219 19.972656 C 36.019531 18.839844 35.464844 18.128906 35.308594 17.710938 C 35.199219 17.433594 35.183594 17.230469 35.21875 16.601562 C 35.285156 15.523438 35.390625 15.203125 35.753906 15.015625 C 36.101562 14.828125 36.132812 14.753906 35.976562 14.453125 C 35.878906 14.265625 35.84375 13.800781 35.789062 12.070312 C 35.679688 8.722656 35.539062 7.789062 35.050781 7.226562 C 34.984375 7.144531 34.902344 6.996094 34.878906 6.890625 C 34.804688 6.589844 34.339844 6.035156 33.648438 5.421875 C 32.472656 4.382812 31.417969 3.773438 30.285156 3.476562 C 29.617188 3.304688 29.277344 3.113281 28.707031 2.605469 C 28.011719 1.984375 27.410156 1.601562 25.832031 0.78125 L 24.488281 0.0820312 L 20.265625 0.0429688 C 17.777344 0.0234375 15.859375 0.0390625 15.597656 0.0742188 Z M 30.972656 4.261719 C 31.632812 4.488281 32.128906 4.839844 32.960938 5.648438 C 34.070312 6.730469 34.597656 7.542969 34.855469 8.574219 C 34.996094 9.144531 35.292969 11.390625 35.277344 11.816406 C 35.277344 11.996094 35.191406 12.445312 35.085938 12.828125 C 34.828125 13.816406 34.679688 15.039062 34.628906 16.632812 L 34.582031 18.027344 L 34.835938 18.496094 C 35.175781 19.148438 35.960938 20.039062 36.53125 20.421875 C 37.242188 20.902344 37.496094 21.203125 37.496094 21.566406 C 37.496094 21.742188 37.433594 21.996094 37.355469 22.152344 C 37.28125 22.300781 37.167969 22.570312 37.117188 22.75 C 37.050781 22.988281 36.945312 23.117188 36.6875 23.289062 C 36.183594 23.636719 35.894531 23.6875 35.324219 23.554688 C 34.984375 23.46875 34.78125 23.464844 34.648438 23.515625 C 34.480469 23.574219 34.457031 23.628906 34.457031 23.957031 C 34.457031 24.503906 34.183594 25.621094 33.921875 26.128906 C 33.835938 26.292969 33.804688 26.300781 33.34375 26.253906 C 33.078125 26.234375 32.34375 26.113281 31.714844 26 L 30.566406 25.792969 L 30.582031 25.328125 C 30.597656 24.96875 30.582031 24.863281 30.5 24.863281 C 30.328125 24.863281 30.003906 25.3125 29.707031 25.949219 C 29.359375 26.703125 29.304688 26.953125 29.449219 27.148438 C 29.601562 27.363281 29.789062 27.222656 29.929688 26.765625 C 30.011719 26.523438 30.09375 26.390625 30.179688 26.375 C 30.253906 26.359375 30.507812 26.472656 30.738281 26.628906 C 31.226562 26.953125 32.828125 28.539062 32.828125 28.695312 C 32.828125 28.757812 32.722656 28.964844 32.589844 29.167969 C 32.292969 29.617188 32.242188 29.933594 32.242188 31.402344 L 32.234375 32.574219 L 31.75 32.816406 C 31.25 33.054688 30.898438 33.386719 30.898438 33.617188 C 30.898438 33.691406 30.78125 33.992188 30.632812 34.285156 C 30.3125 34.929688 29.667969 35.625 29.160156 35.863281 C 28.402344 36.214844 28.230469 36.566406 28.765625 36.671875 C 28.988281 36.71875 29.113281 36.792969 29.1875 36.929688 C 29.285156 37.109375 29.277344 37.160156 29.0625 37.632812 C 28.929688 37.910156 28.804688 38.269531 28.78125 38.433594 C 28.722656 38.785156 28.527344 38.890625 28.078125 38.820312 C 27.585938 38.738281 27.582031 38.613281 28.015625 37.609375 L 28.1875 37.210938 L 28.023438 36.898438 C 27.632812 36.148438 25.253906 33.828125 23.585938 32.5625 C 23.023438 32.132812 22.207031 31.511719 21.777344 31.175781 C 21.339844 30.847656 20.753906 30.433594 20.480469 30.269531 C 20.199219 30.105469 19.703125 29.738281 19.378906 29.460938 C 19.050781 29.183594 18.671875 28.914062 18.539062 28.855469 C 18.398438 28.792969 17.851562 28.488281 17.316406 28.164062 C 15.28125 26.9375 13.175781 25.925781 11.929688 25.574219 C 10.722656 25.230469 10.308594 24.917969 10.417969 24.414062 C 10.449219 24.269531 10.476562 23.53125 10.476562 22.773438 L 10.484375 21.386719 L 11.410156 20.851562 C 12.640625 20.128906 13.203125 19.613281 13.417969 19.011719 C 13.507812 18.757812 13.632812 18.542969 13.695312 18.519531 C 13.917969 18.429688 14.488281 18.820312 15.066406 19.433594 C 15.753906 20.183594 16.144531 20.480469 16.933594 20.878906 C 18.035156 21.425781 18.941406 21.554688 19.289062 21.210938 C 19.480469 21.007812 19.414062 20.753906 18.984375 20.109375 C 18.578125 19.492188 18.445312 19.449219 18.007812 19.742188 C 17.457031 20.109375 17.414062 20.09375 15.695312 18.992188 C 15.316406 18.742188 14.6875 18.386719 14.300781 18.183594 C 13.480469 17.765625 13.515625 17.851562 13.441406 16.347656 C 13.375 15.082031 13.449219 14.800781 13.9375 14.347656 C 14.390625 13.9375 14.8125 13.816406 15.84375 13.816406 C 16.746094 13.816406 16.84375 13.882812 16.917969 14.535156 C 17.019531 15.398438 17.621094 15.425781 17.761719 14.574219 C 17.84375 14.027344 18.28125 13.914062 19.488281 14.109375 C 20.332031 14.25 20.378906 14.222656 20.378906 13.53125 C 20.378906 12.960938 20.3125 12.804688 20.066406 12.804688 C 19.835938 12.804688 19.769531 12.460938 19.800781 11.496094 C 19.835938 10.425781 19.957031 10.101562 20.378906 9.886719 C 20.859375 9.636719 21.132812 9.34375 21.363281 8.835938 C 21.636719 8.222656 21.71875 8.132812 22.191406 7.910156 C 22.910156 7.578125 24.289062 6.582031 25.128906 5.796875 C 25.394531 5.542969 25.726562 5.300781 25.867188 5.257812 C 26.007812 5.210938 26.617188 5.085938 27.222656 4.980469 C 28.5 4.757812 28.730469 4.675781 29.144531 4.296875 C 29.433594 4.027344 29.441406 4.027344 29.964844 4.058594 C 30.253906 4.082031 30.707031 4.171875 30.972656 4.261719 Z M 12.292969 26.359375 C 13.34375 26.902344 14.722656 27.664062 15.347656 28.0625 C 15.976562 28.457031 17.011719 29.078125 17.664062 29.4375 C 18.308594 29.804688 19.023438 30.269531 19.257812 30.472656 C 19.835938 30.976562 20.785156 31.65625 21.230469 31.878906 C 21.4375 31.984375 21.710938 32.171875 21.84375 32.285156 C 21.976562 32.402344 22.230469 32.574219 22.402344 32.660156 C 22.742188 32.839844 23.082031 33.09375 23.710938 33.65625 C 23.933594 33.851562 24.304688 34.140625 24.527344 34.296875 C 24.75 34.457031 25.320312 34.929688 25.785156 35.339844 C 26.253906 35.757812 26.660156 36.097656 26.691406 36.097656 C 26.792969 36.097656 27.351562 36.640625 27.460938 36.851562 C 27.609375 37.152344 27.59375 37.347656 27.351562 37.871094 C 27.070312 38.460938 26.964844 38.523438 26.289062 38.425781 C 25.699219 38.34375 25.527344 38.394531 25.417969 38.6875 C 25.378906 38.785156 25.304688 38.867188 25.253906 38.867188 C 25.195312 38.867188 24.867188 38.574219 24.527344 38.222656 C 24.179688 37.871094 23.824219 37.550781 23.734375 37.519531 C 23.644531 37.480469 23.503906 37.316406 23.421875 37.152344 C 23.335938 36.980469 23.074219 36.703125 22.808594 36.492188 C 22.546875 36.296875 22.074219 35.886719 21.75 35.578125 C 21.421875 35.273438 20.835938 34.769531 20.453125 34.457031 C 20.066406 34.148438 19.527344 33.699219 19.25 33.46875 C 17.503906 31.953125 12.679688 28.554688 11.175781 27.777344 C 10.757812 27.558594 10.269531 27.238281 10.09375 27.066406 C 9.773438 26.757812 9.765625 26.726562 9.8125 26.429688 C 9.878906 26 10.152344 25.386719 10.269531 25.386719 C 10.320312 25.386719 11.234375 25.828125 12.292969 26.359375 Z M 39.421875 29.46875 C 39.628906 29.695312 39.578125 30.066406 39.304688 30.40625 C 39.132812 30.605469 39.066406 30.628906 38.710938 30.628906 C 38.488281 30.628906 38.191406 30.578125 38.050781 30.523438 C 37.804688 30.417969 37.792969 30.390625 37.792969 30.074219 C 37.792969 29.453125 38.339844 29.0625 38.992188 29.226562 C 39.140625 29.265625 39.332031 29.378906 39.421875 29.46875 Z M 11.707031 40.132812 C 11.707031 40.207031 11.523438 40.542969 11.300781 40.890625 C 11.078125 41.226562 10.863281 41.628906 10.820312 41.78125 C 10.65625 42.386719 10.773438 43.847656 11.046875 44.492188 C 11.234375 44.925781 11.550781 45.226562 12.121094 45.511719 C 12.574219 45.734375 12.78125 45.964844 13.042969 46.527344 C 13.152344 46.757812 13.308594 46.957031 13.484375 47.066406 C 13.632812 47.164062 14.160156 47.597656 14.640625 48.039062 C 15.5 48.820312 15.84375 49.027344 16.785156 49.398438 C 17.011719 49.488281 17.160156 49.597656 17.175781 49.679688 C 17.207031 49.808594 17.167969 49.816406 16.925781 49.785156 C 16.480469 49.71875 15.828125 49.449219 15.355469 49.125 C 14.730469 48.699219 13.210938 47.285156 12.605469 46.558594 C 12.269531 46.152344 11.953125 45.863281 11.722656 45.734375 C 10.90625 45.285156 10.664062 44.804688 10.433594 43.171875 C 10.253906 41.921875 10.285156 41.765625 10.804688 40.957031 C 11.109375 40.492188 11.558594 39.992188 11.679688 39.992188 C 11.691406 39.992188 11.707031 40.050781 11.707031 40.132812 Z M 28.921875 40.652344 C 28.988281 40.726562 29.121094 40.964844 29.21875 41.1875 C 29.46875 41.757812 30.027344 43.570312 29.996094 43.710938 C 29.964844 43.863281 28.957031 42.804688 28.535156 42.167969 C 28.367188 41.914062 28.105469 41.628906 27.964844 41.539062 C 27.691406 41.363281 27.574219 41.09375 27.691406 40.898438 C 27.890625 40.558594 28.699219 40.394531 28.921875 40.652344 Z M 26.90625 41.210938 C 27.433594 41.667969 27.941406 42.230469 28.566406 43.023438 C 28.722656 43.226562 28.9375 43.480469 29.03125 43.585938 C 29.304688 43.871094 29.929688 44.820312 30.128906 45.261719 C 30.226562 45.472656 30.476562 46.484375 30.683594 47.515625 L 31.070312 49.390625 L 31.070312 50.960938 C 31.078125 51.832031 31.03125 52.855469 30.980469 53.246094 C 30.886719 53.980469 30.582031 54.820312 30.417969 54.820312 C 30.367188 54.820312 30.09375 54.539062 29.804688 54.195312 C 28.972656 53.214844 27.898438 52.210938 26.847656 51.449219 C 25.429688 50.421875 24.558594 49.890625 23.992188 49.71875 C 23.4375 49.546875 23.230469 49.367188 23.289062 49.109375 C 23.320312 49.015625 23.519531 48.640625 23.75 48.28125 C 24.253906 47.480469 25.089844 45.875 25.453125 45.007812 C 25.824219 44.140625 25.914062 43.667969 26.007812 42.273438 C 26.097656 40.898438 26.121094 40.742188 26.261719 40.742188 C 26.3125 40.742188 26.601562 40.949219 26.90625 41.210938 Z M 23.164062 49.695312 C 23.320312 49.800781 23.585938 50.019531 23.75 50.167969 C 24.230469 50.625 24.644531 50.941406 25.933594 51.824219 C 27.601562 52.96875 28.460938 53.628906 29.144531 54.292969 C 30.195312 55.304688 30.328125 55.785156 29.804688 56.675781 C 29.640625 56.953125 29.386719 57.433594 29.238281 57.738281 C 29.089844 58.054688 28.78125 58.554688 28.550781 58.863281 C 28.320312 59.167969 27.632812 60.164062 27.023438 61.070312 C 26.410156 61.976562 25.71875 62.972656 25.484375 63.28125 C 25.007812 63.902344 24.726562 64.472656 24.792969 64.65625 C 24.851562 64.816406 25.082031 64.875 25.253906 64.785156 C 25.335938 64.742188 25.453125 64.582031 25.527344 64.425781 C 25.601562 64.269531 25.707031 64.082031 25.773438 64.007812 C 25.890625 63.871094 26.121094 63.835938 26.1875 63.945312 C 26.210938 63.984375 26.179688 64.492188 26.113281 65.085938 C 25.980469 66.351562 25.941406 69.105469 26.039062 71.527344 L 26.105469 73.21875 L 25.816406 73.269531 C 25.660156 73.292969 24.898438 73.339844 24.128906 73.367188 L 22.726562 73.414062 L 22.769531 70.5 C 22.832031 66.71875 22.984375 64.515625 23.339844 62.5 C 23.511719 61.574219 23.535156 60.585938 23.402344 60.449219 C 23.261719 60.308594 22.984375 60.34375 22.867188 60.523438 C 22.742188 60.734375 22.636719 61.207031 22.488281 62.230469 C 22.238281 63.933594 22.15625 65.160156 22.082031 68.402344 C 22.03125 70.261719 21.972656 72.523438 21.949219 73.429688 L 21.898438 75.074219 L 19.082031 75.074219 C 17.53125 75.074219 16.109375 75.042969 15.925781 75.015625 C 15.285156 74.910156 15.308594 74.988281 15.480469 73.242188 C 15.820312 69.757812 15.871094 66.816406 15.636719 64.03125 C 15.421875 61.5 15.390625 61.386719 14.96875 60.921875 C 14.777344 60.71875 14.574219 60.425781 14.53125 60.277344 C 14.488281 60.128906 14.277344 59.835938 14.070312 59.640625 C 13.566406 59.144531 13.441406 58.90625 13.375 58.375 C 13.34375 58.128906 13.195312 57.574219 13.035156 57.148438 C 12.761719 56.398438 12.695312 55.964844 12.789062 55.582031 C 12.820312 55.492188 12.894531 55.417969 12.960938 55.417969 C 13.144531 55.417969 13.871094 56 14.117188 56.347656 C 14.375 56.703125 14.417969 57.183594 14.210938 57.417969 C 14.058594 57.589844 14.042969 57.8125 14.183594 57.8125 C 14.398438 57.8125 14.84375 57.230469 15.207031 56.464844 C 15.40625 56.03125 15.769531 55.277344 16.011719 54.78125 C 16.257812 54.269531 16.65625 53.230469 16.933594 52.382812 C 17.191406 51.5625 17.480469 50.78125 17.554688 50.648438 C 17.726562 50.371094 17.804688 50.347656 19.042969 50.292969 C 20.511719 50.226562 21.976562 49.957031 22.46875 49.652344 C 22.777344 49.457031 22.816406 49.464844 23.164062 49.695312 Z M 16.085938 50.046875 C 16.226562 50.136719 16.347656 50.273438 16.359375 50.339844 C 16.375 50.40625 16.214844 50.714844 16.011719 51.023438 C 15.679688 51.515625 15.554688 51.824219 15.679688 51.824219 C 15.703125 51.824219 15.84375 51.71875 16.003906 51.589844 C 16.375 51.292969 16.570312 51.320312 16.539062 51.671875 C 16.507812 52.070312 16.035156 53.546875 15.613281 54.585938 C 15.234375 55.523438 14.894531 56.015625 14.613281 56.015625 C 14.425781 56.015625 13.558594 55.074219 13.558594 54.855469 C 13.558594 54.75 13.878906 54.242188 14.375 53.566406 C 15.101562 52.578125 15.308594 52.195312 15.132812 52.195312 C 15.042969 52.195312 14.523438 52.765625 13.910156 53.554688 C 13.203125 54.449219 12.390625 55.238281 12.085938 55.304688 C 11.804688 55.363281 11.605469 55.257812 11.484375 54.976562 C 11.324219 54.578125 11.589844 54.1875 13.257812 52.347656 C 15.789062 49.539062 15.589844 49.710938 16.085938 50.046875 Z M 7.226562 51.597656 C 7.304688 51.726562 7.1875 51.835938 7.070312 51.742188 C 7.011719 51.695312 6.964844 51.628906 6.964844 51.589844 C 6.964844 51.5 7.164062 51.507812 7.226562 51.597656 Z M 7.585938 53.476562 C 7.707031 53.613281 7.855469 53.695312 7.964844 53.695312 C 8.292969 53.695312 9.070312 54.003906 9.300781 54.21875 C 9.425781 54.332031 9.640625 54.488281 9.78125 54.558594 C 9.921875 54.628906 10.390625 54.929688 10.820312 55.222656 C 11.25 55.515625 11.6875 55.800781 11.804688 55.851562 C 12.054688 55.964844 12.0625 56.078125 11.8125 56.136719 C 11.550781 56.203125 11.277344 56.0625 10.492188 55.425781 C 10.121094 55.140625 9.738281 54.878906 9.625 54.855469 C 9.515625 54.835938 9.234375 54.660156 9.003906 54.476562 C 8.765625 54.292969 8.527344 54.144531 8.46875 54.144531 C 8.320312 54.144531 7.515625 53.792969 7.179688 53.574219 C 6.867188 53.382812 6.816406 53.277344 7.023438 53.230469 C 7.230469 53.1875 7.386719 53.246094 7.585938 53.476562 Z M 23.867188 74.109375 C 23.992188 74.167969 24.46875 74.320312 24.917969 74.441406 C 25.542969 74.597656 25.78125 74.695312 25.859375 74.8125 C 26.195312 75.308594 26.222656 75.324219 26.988281 75.277344 C 27.378906 75.261719 27.78125 75.261719 27.875 75.285156 C 28.246094 75.382812 28.367188 76.191406 28.070312 76.574219 C 27.898438 76.796875 27.253906 77.136719 27.003906 77.136719 C 26.867188 77.136719 26.855469 77.089844 26.855469 76.773438 C 26.859375 76.175781 26.445312 75.765625 26.230469 76.160156 C 26.105469 76.394531 25.957031 76.339844 25.882812 76.042969 C 25.792969 75.628906 25.667969 75.585938 25.0625 75.734375 C 24.140625 75.960938 22.757812 75.863281 22.511719 75.554688 C 22.214844 75.195312 22.414062 74.222656 22.824219 74.003906 C 23.046875 73.890625 23.542969 73.9375 23.867188 74.109375 Z M 19.257812 75.675781 C 19.429688 75.734375 19.679688 75.863281 19.808594 75.953125 C 20.007812 76.09375 20.140625 76.125 20.628906 76.125 C 21.199219 76.125 21.214844 76.132812 21.421875 76.386719 C 21.539062 76.527344 21.636719 76.699219 21.636719 76.773438 C 21.636719 76.964844 21.097656 77.539062 20.777344 77.695312 C 20.464844 77.847656 19.753906 77.832031 17.785156 77.636719 C 15.710938 77.425781 15.347656 77.332031 15.433594 76.980469 C 15.507812 76.699219 16.035156 75.929688 16.234375 75.816406 C 16.457031 75.699219 17.074219 75.683594 17.28125 75.792969 C 17.367188 75.839844 17.515625 75.972656 17.621094 76.09375 C 17.878906 76.410156 18.027344 76.371094 18.257812 75.9375 C 18.4375 75.609375 18.488281 75.5625 18.703125 75.5625 C 18.84375 75.5625 19.089844 75.613281 19.257812 75.675781 Z M 30.121094 76.117188 C 30.300781 76.242188 30.21875 76.460938 29.988281 76.460938 C 29.773438 76.460938 29.601562 76.28125 29.667969 76.125 C 29.722656 75.980469 29.9375 75.980469 30.121094 76.117188 Z M 24.839844 76.925781 C 25.140625 77.179688 24.964844 77.601562 24.414062 77.929688 C 24.148438 78.085938 23.941406 78.136719 23.527344 78.167969 C 22.792969 78.214844 22.769531 78.132812 23.335938 77.578125 C 23.972656 76.949219 24.558594 76.699219 24.839844 76.925781 Z M 26.410156 77.554688 C 26.644531 77.785156 26.691406 77.945312 26.527344 77.996094 C 26.320312 78.0625 26.082031 77.90625 26.082031 77.703125 C 26.082031 77.421875 26.214844 77.351562 26.410156 77.554688 Z M 21.621094 78.503906 C 21.636719 78.59375 21.601562 78.632812 21.496094 78.632812 C 21.40625 78.632812 21.339844 78.585938 21.339844 78.535156 C 21.339844 78.304688 21.578125 78.28125 21.621094 78.503906 Z M 21.621094 78.503906 "/>
<path style=" stroke:none;fill-rule:nonzero;fill:rgb(0%,0%,0%);fill-opacity:1;" d="M 30.121094 6.972656 C 29.410156 7.09375 27.699219 7.554688 27.359375 7.722656 C 26.511719 8.117188 23.132812 12.027344 23.402344 12.296875 C 23.578125 12.476562 23.992188 12.152344 25.417969 10.71875 C 26.378906 9.734375 26.988281 9.179688 27.246094 9.039062 C 27.511719 8.894531 28.011719 8.753906 28.914062 8.574219 C 30.3125 8.296875 31.433594 7.992188 31.699219 7.820312 C 31.796875 7.757812 31.90625 7.625 31.953125 7.519531 C 32.027344 7.371094 32.011719 7.300781 31.886719 7.128906 C 31.746094 6.941406 31.699219 6.929688 31.113281 6.914062 C 30.773438 6.914062 30.328125 6.933594 30.121094 6.972656 Z M 30.121094 6.972656 "/>
<path style=" stroke:none;fill-rule:nonzero;fill:rgb(0%,0%,0%);fill-opacity:1;" d="M 29.238281 13.652344 C 29.085938 13.824219 28.972656 14.027344 28.945312 14.214844 C 28.839844 14.886719 28.210938 15.261719 27.015625 15.359375 C 26.617188 15.390625 26.246094 15.457031 26.203125 15.503906 C 26.140625 15.5625 26.15625 15.652344 26.261719 15.824219 C 26.519531 16.273438 26.59375 16.4375 26.714844 16.886719 C 26.875 17.496094 26.949219 19.058594 26.824219 19.425781 C 26.773438 19.589844 26.765625 19.742188 26.800781 19.777344 C 26.839844 19.816406 27.070312 19.808594 27.34375 19.761719 C 28.203125 19.621094 29.433594 19.890625 29.675781 20.265625 C 29.847656 20.527344 30.070312 20.496094 30.195312 20.195312 C 30.253906 20.054688 30.433594 19.851562 30.609375 19.734375 C 30.789062 19.621094 31.175781 19.328125 31.476562 19.082031 C 31.78125 18.839844 32.160156 18.570312 32.316406 18.488281 C 32.476562 18.414062 32.605469 18.324219 32.605469 18.300781 C 32.605469 18.289062 32.472656 18.011719 32.300781 17.6875 L 31.996094 17.113281 L 32.101562 15.316406 L 31.625 15.308594 C 31.070312 15.308594 30.46875 15.066406 30.195312 14.746094 C 30.09375 14.613281 30.003906 14.386719 29.972656 14.167969 C 29.90625 13.601562 29.839844 13.441406 29.65625 13.421875 C 29.535156 13.398438 29.410156 13.472656 29.238281 13.652344 Z M 29.921875 15.652344 C 30.054688 15.734375 30.179688 15.855469 30.210938 15.921875 C 30.234375 15.980469 30.128906 16.296875 29.980469 16.617188 C 29.691406 17.246094 29.664062 17.523438 29.824219 18.078125 C 29.972656 18.578125 29.972656 19.214844 29.816406 19.273438 C 29.402344 19.441406 28.65625 19.253906 28.230469 18.886719 C 27.78125 18.503906 27.601562 18.109375 27.617188 17.523438 C 27.632812 16.746094 27.964844 16.117188 28.585938 15.71875 C 29.011719 15.449219 29.542969 15.421875 29.921875 15.652344 Z M 29.921875 15.652344 "/>
<path style=" stroke:none;fill-rule:nonzero;fill:rgb(0%,0%,0%);fill-opacity:1;" d="M 14.332031 14.671875 C 13.902344 14.875 13.707031 15.144531 13.707031 15.578125 C 13.707031 15.792969 13.753906 15.964844 13.8125 16.019531 C 13.894531 16.09375 13.953125 16.046875 14.09375 15.785156 C 14.324219 15.351562 14.507812 15.277344 15.316406 15.277344 C 15.6875 15.277344 16.011719 15.246094 16.035156 15.21875 C 16.101562 15.105469 15.789062 14.679688 15.589844 14.605469 C 15.285156 14.484375 14.664062 14.523438 14.332031 14.671875 Z M 14.332031 14.671875 "/>
<path style=" stroke:none;fill-rule:nonzero;fill:rgb(0%,0%,0%);fill-opacity:1;" d="M 14.96875 16.585938 C 14.910156 16.664062 14.886719 16.847656 14.910156 17.128906 C 14.945312 17.597656 15.132812 17.824219 15.480469 17.824219 C 15.582031 17.832031 15.859375 17.890625 16.078125 17.972656 C 17.28125 18.398438 17.546875 17.757812 16.359375 17.292969 C 16.132812 17.203125 15.769531 16.984375 15.5625 16.804688 C 15.136719 16.4375 15.101562 16.421875 14.96875 16.585938 Z M 14.96875 16.585938 "/>
<path style=" stroke:none;fill-rule:nonzero;fill:rgb(0%,0%,0%);fill-opacity:1;" d="M 33.332031 22.070312 C 33.269531 22.144531 33.09375 22.398438 32.945312 22.628906 C 32.757812 22.914062 32.542969 23.140625 32.285156 23.296875 C 31.8125 23.589844 31.566406 23.808594 31.566406 23.949219 C 31.566406 24.203125 32.410156 23.785156 32.988281 23.230469 C 33.390625 22.855469 33.679688 22.324219 33.605469 22.09375 C 33.546875 21.90625 33.476562 21.90625 33.332031 22.070312 Z M 33.332031 22.070312 "/>
<path style=" stroke:none;fill-rule:nonzero;fill:rgb(0%,0%,0%);fill-opacity:1;" d="M 17.546875 22.796875 C 17.363281 22.9375 17.265625 23.246094 17.265625 23.730469 C 17.265625 24.59375 17.613281 25.425781 18.058594 25.632812 C 18.222656 25.710938 18.265625 25.695312 18.382812 25.550781 C 18.488281 25.417969 18.511719 25.296875 18.480469 24.992188 C 18.304688 23.027344 18.214844 22.691406 17.878906 22.691406 C 17.769531 22.691406 17.613281 22.734375 17.546875 22.796875 Z M 17.546875 22.796875 "/>
<path style=" stroke:none;fill-rule:nonzero;fill:rgb(0%,0%,0%);fill-opacity:1;" d="M 27.484375 23.09375 C 27.023438 23.441406 26.699219 23.851562 26.527344 24.324219 C 26.359375 24.789062 26.34375 24.960938 26.476562 25.082031 C 26.617188 25.191406 26.75 25.035156 27.078125 24.324219 C 27.222656 24.007812 27.492188 23.566406 27.675781 23.34375 C 27.863281 23.109375 28.011719 22.90625 28.011719 22.886719 C 28.011719 22.78125 27.796875 22.863281 27.484375 23.09375 Z M 27.484375 23.09375 "/>
<path style=" stroke:none;fill-rule:nonzero;fill:rgb(0%,0%,0%);fill-opacity:1;" d="M 18.738281 52.546875 C 18.679688 52.691406 18.671875 53.375 18.703125 54.699219 C 18.726562 55.769531 18.761719 56.652344 18.777344 56.675781 C 18.835938 56.726562 19.101562 56.546875 19.148438 56.421875 C 19.242188 56.160156 19.339844 54.886719 19.339844 53.753906 C 19.339844 52.789062 19.316406 52.5625 19.222656 52.464844 C 19.042969 52.28125 18.828125 52.316406 18.738281 52.546875 Z M 18.738281 52.546875 "/>
<path style=" stroke:none;fill-rule:nonzero;fill:rgb(0%,0%,0%);fill-opacity:1;" d="M 69.210938 0.375 C 66.699219 0.457031 66.28125 0.570312 65.320312 1.421875 C 64.734375 1.941406 64.535156 2.066406 63.992188 2.222656 C 63.503906 2.367188 62.101562 3.039062 61.5625 3.394531 C 60.851562 3.847656 60.5625 3.96875 59.726562 4.15625 C 58.796875 4.367188 58.613281 4.449219 58.132812 4.867188 C 57.710938 5.242188 57.621094 5.289062 56.796875 5.585938 C 55.101562 6.191406 54.773438 6.367188 54.167969 6.964844 C 53.632812 7.496094 53.433594 7.894531 53.53125 8.265625 C 53.550781 8.371094 53.746094 8.648438 53.953125 8.886719 C 54.242188 9.21875 54.324219 9.367188 54.292969 9.511719 C 54.277344 9.617188 54.195312 9.996094 54.121094 10.355469 C 53.988281 11.007812 53.988281 11.015625 54.128906 11.292969 C 54.300781 11.601562 54.714844 11.921875 54.945312 11.898438 C 55.226562 11.878906 55.285156 11.90625 55.632812 12.242188 C 56.027344 12.625 56.398438 12.773438 56.789062 12.699219 C 57.109375 12.640625 57.144531 12.453125 56.855469 12.394531 C 56.425781 12.304688 56.277344 12.238281 56.257812 12.109375 C 56.21875 11.9375 56.515625 11.832031 57.050781 11.832031 L 57.480469 11.832031 L 57.53125 12.109375 C 57.554688 12.265625 57.574219 12.730469 57.574219 13.144531 C 57.574219 13.546875 57.628906 14.53125 57.6875 15.316406 C 57.835938 17.105469 57.785156 17.6875 57.398438 18.5625 C 57.09375 19.261719 56.828125 19.6875 56.316406 20.292969 C 55.804688 20.902344 55.722656 21.097656 55.722656 21.742188 C 55.722656 22.742188 56.0625 23.464844 56.738281 23.867188 C 57.066406 24.0625 57.152344 24.078125 57.859375 24.078125 C 58.828125 24.078125 58.917969 24.175781 58.605469 24.863281 C 58.300781 25.53125 58.441406 26 59.027344 26.292969 C 59.28125 26.414062 59.421875 26.433594 59.636719 26.398438 C 60.191406 26.285156 61.007812 26.324219 61.347656 26.480469 L 61.667969 26.621094 L 61.371094 27.003906 C 60.960938 27.53125 60.835938 27.796875 60.835938 28.15625 C 60.835938 28.613281 61.035156 28.777344 61.792969 28.929688 C 62.132812 28.996094 62.429688 29.0625 62.4375 29.078125 C 62.453125 29.09375 62.511719 29.558594 62.578125 30.113281 C 62.71875 31.339844 62.785156 31.558594 63.082031 31.78125 C 63.511719 32.105469 63.964844 32.203125 65.421875 32.285156 C 66.867188 32.359375 68.046875 32.328125 68.808594 32.1875 C 69.3125 32.097656 69.550781 32.132812 69.808594 32.34375 C 70.03125 32.523438 69.972656 32.660156 69.402344 33.3125 C 69.105469 33.648438 68.957031 33.902344 68.875 34.1875 C 68.714844 34.75 68.214844 37.648438 68.222656 38.007812 C 68.230469 38.363281 68.757812 39.75 69.121094 40.351562 C 69.4375 40.882812 69.484375 41.152344 69.328125 41.617188 C 69.148438 42.148438 68.855469 42.460938 68.082031 42.949219 C 67.707031 43.179688 67.328125 43.4375 67.246094 43.503906 C 67.164062 43.578125 66.75 43.832031 66.320312 44.070312 C 65.890625 44.304688 65.394531 44.628906 65.222656 44.777344 C 64.628906 45.269531 64.609375 45.277344 63.578125 45.332031 C 62.554688 45.382812 61.25 45.539062 60.28125 45.71875 C 59.027344 45.953125 58.984375 45.988281 58.960938 46.757812 C 58.9375 47.667969 59.222656 47.816406 60.8125 47.734375 C 61.519531 47.695312 61.808594 47.703125 61.777344 47.765625 C 61.746094 47.800781 61.4375 48.003906 61.082031 48.207031 C 60.347656 48.617188 59.636719 49.277344 59.511719 49.671875 C 59.390625 50.03125 59.539062 50.257812 60.058594 50.511719 L 60.445312 50.707031 L 60.953125 50.511719 C 61.238281 50.40625 61.644531 50.21875 61.851562 50.101562 C 62.066406 49.972656 62.257812 49.875 62.273438 49.875 C 62.296875 49.875 62.332031 50.144531 62.363281 50.46875 L 62.40625 51.066406 L 62.867188 51.113281 C 63.109375 51.132812 63.753906 51.164062 64.296875 51.171875 L 65.265625 51.1875 L 65.949219 50.714844 C 66.320312 50.453125 66.734375 50.191406 66.875 50.128906 C 67.214844 49.988281 67.683594 49.996094 67.808594 50.144531 C 67.882812 50.242188 67.996094 50.257812 68.304688 50.226562 C 68.609375 50.199219 68.707031 50.210938 68.742188 50.292969 C 68.765625 50.355469 68.699219 50.683594 68.585938 51.03125 C 68.363281 51.753906 68.351562 51.972656 68.503906 52.273438 C 68.652344 52.554688 68.855469 52.660156 69.195312 52.632812 C 69.445312 52.617188 69.46875 52.625 69.453125 52.8125 C 69.445312 52.914062 69.121094 53.695312 68.726562 54.535156 C 68.328125 55.363281 67.859375 56.40625 67.675781 56.839844 C 67.269531 57.777344 66.171875 60.894531 66.121094 61.246094 C 66.066406 61.558594 66.527344 62.53125 66.824219 62.742188 C 67.097656 62.941406 68.410156 63.273438 69.230469 63.347656 C 70.445312 63.46875 71.164062 63.746094 71.722656 64.320312 C 72.152344 64.761719 73.054688 65.371094 73.878906 65.757812 C 74.226562 65.933594 74.617188 66.117188 74.757812 66.1875 C 74.972656 66.296875 75.054688 66.417969 75.308594 67.027344 C 75.871094 68.402344 75.839844 68.238281 75.835938 70.171875 C 75.828125 71.9375 75.722656 73.039062 75.324219 75.429688 C 75.175781 76.3125 75.117188 76.410156 74.671875 76.601562 C 74.144531 76.820312 73.152344 77.613281 73.09375 77.863281 C 73.046875 78.019531 73.085938 78.09375 73.242188 78.234375 C 73.484375 78.445312 73.609375 78.453125 74.25 78.25 C 74.789062 78.085938 75.144531 78.085938 75.195312 78.242188 C 75.210938 78.296875 74.972656 78.59375 74.664062 78.917969 C 74.351562 79.230469 74.101562 79.53125 74.101562 79.578125 C 74.101562 79.769531 74.484375 79.980469 74.832031 79.980469 C 75.738281 79.980469 77.367188 79.5625 78.355469 79.082031 C 78.605469 78.960938 79.085938 78.617188 79.429688 78.316406 C 80.4375 77.425781 80.769531 77.203125 81.027344 77.226562 L 81.25 77.246094 L 81.222656 78.085938 C 81.199219 78.902344 81.207031 78.933594 81.390625 79.109375 C 81.546875 79.277344 81.644531 79.304688 82.015625 79.304688 C 82.703125 79.304688 82.746094 79.246094 82.84375 78.035156 C 82.976562 76.324219 83.066406 76.042969 83.628906 75.359375 C 84.347656 74.515625 84.496094 73.976562 84.132812 73.546875 C 84.03125 73.421875 83.910156 73.1875 83.867188 73.039062 C 83.820312 72.878906 83.726562 72.664062 83.652344 72.550781 C 83.570312 72.445312 83.511719 72.273438 83.511719 72.175781 C 83.511719 72.085938 83.378906 71.722656 83.222656 71.382812 C 82.976562 70.851562 82.941406 70.71875 83 70.523438 C 83.101562 70.164062 83.273438 68.738281 83.324219 67.8125 C 83.347656 67.355469 83.386719 66.792969 83.40625 66.554688 L 83.453125 66.117188 L 85.835938 66.140625 L 88.214844 66.164062 L 88.71875 65.960938 C 90.726562 65.144531 91.320312 64.441406 90.964844 63.257812 C 90.875 62.949219 90.875 62.90625 90.988281 62.800781 C 91.171875 62.636719 92.097656 62.410156 92.871094 62.34375 C 93.632812 62.285156 93.738281 62.210938 93.738281 61.738281 C 93.738281 61.28125 93.535156 60.796875 93.0625 60.097656 C 92.832031 59.769531 92.394531 59.054688 92.078125 58.523438 C 91.765625 57.984375 91.261719 57.246094 90.957031 56.878906 C 90.097656 55.84375 89.660156 55.246094 89.660156 55.109375 C 89.660156 54.925781 89.898438 54.75 90.90625 54.179688 C 91.417969 53.890625 91.871094 53.597656 91.914062 53.53125 C 92.039062 53.328125 91.394531 52.136719 90.578125 51.066406 C 89.726562 49.9375 89.289062 49.289062 89.289062 49.140625 C 89.289062 48.863281 90.691406 47.300781 91.0625 47.171875 C 91.1875 47.128906 91.402344 46.902344 91.640625 46.550781 C 91.847656 46.25 92.375 45.570312 92.816406 45.039062 C 93.921875 43.699219 94.234375 43.261719 94.542969 42.609375 C 94.796875 42.078125 94.8125 42.011719 94.8125 41.300781 C 94.804688 40.410156 94.730469 40.222656 93.714844 38.5 C 93.0625 37.40625 92.691406 36.558594 92.542969 35.855469 C 92.5 35.640625 92.359375 35.257812 92.238281 35.007812 C 92.113281 34.765625 91.949219 34.359375 91.875 34.105469 C 91.800781 33.855469 91.667969 33.585938 91.582031 33.503906 C 91.492188 33.429688 91.023438 32.800781 90.542969 32.121094 C 89.652344 30.847656 89.320312 30.480469 89.0625 30.480469 C 88.765625 30.480469 88.0625 30.050781 87.496094 29.527344 C 87.171875 29.226562 86.703125 28.875 86.453125 28.742188 C 86.050781 28.523438 85.984375 28.449219 85.875 28.152344 C 85.808594 27.957031 85.578125 27.542969 85.355469 27.222656 L 84.957031 26.644531 L 84.976562 26.023438 C 84.992188 25.507812 84.96875 25.378906 84.851562 25.230469 L 84.710938 25.050781 L 84.527344 25.222656 C 84.421875 25.320312 84.289062 25.386719 84.230469 25.371094 C 84.171875 25.363281 83.964844 25.132812 83.761719 24.871094 C 83.304688 24.261719 83.199219 24.21875 83.230469 24.640625 C 83.25 25.066406 83.109375 25.179688 81.496094 26.015625 C 78.382812 27.632812 77.566406 28.15625 74.839844 30.292969 C 72.929688 31.78125 72.417969 32.230469 72.011719 32.75 L 71.78125 33.03125 L 72.070312 33.332031 C 72.234375 33.503906 72.5 33.722656 72.671875 33.828125 C 73.027344 34.035156 73.316406 34.375 74.078125 35.460938 C 74.707031 36.367188 74.847656 36.5 75.078125 36.449219 C 75.324219 36.378906 76.65625 35.347656 77.65625 34.449219 C 78.125 34.027344 78.878906 33.394531 79.324219 33.03125 C 79.777344 32.679688 81.019531 31.691406 82.09375 30.832031 C 84.289062 29.078125 84.296875 29.070312 84.675781 28.945312 C 85.15625 28.773438 85.628906 29.011719 86.695312 29.957031 C 86.964844 30.195312 87.4375 30.554688 87.75 30.773438 C 88.59375 31.332031 89.269531 32.082031 90.15625 33.4375 C 90.683594 34.222656 90.949219 34.742188 91.0625 35.183594 C 91.121094 35.382812 91.261719 35.601562 91.453125 35.789062 C 91.683594 36.015625 91.765625 36.164062 91.816406 36.449219 C 91.914062 36.964844 92.386719 37.929688 93.039062 38.902344 C 93.597656 39.757812 93.90625 40.394531 93.988281 40.890625 C 94.027344 41.09375 93.988281 41.257812 93.816406 41.617188 C 93.523438 42.25 92.890625 43.171875 92.476562 43.59375 C 92.292969 43.78125 91.9375 44.289062 91.683594 44.71875 C 90.898438 46.070312 89.4375 47.921875 88.046875 49.304688 C 87.558594 49.792969 87.503906 49.824219 87.261719 49.777344 C 86.726562 49.6875 84.644531 48.503906 83.746094 47.777344 C 83.378906 47.480469 83.324219 47.398438 83.304688 47.144531 C 83.273438 46.730469 83.621094 46.167969 84.59375 45.046875 C 85.023438 44.550781 85.578125 43.863281 85.832031 43.511719 C 86.082031 43.167969 86.394531 42.769531 86.527344 42.632812 L 86.757812 42.386719 L 88.015625 42.386719 C 88.710938 42.386719 89.328125 42.363281 89.394531 42.339844 C 89.558594 42.28125 89.550781 41.894531 89.386719 41.824219 C 89.3125 41.796875 88.765625 41.742188 88.15625 41.707031 C 86.675781 41.609375 86.445312 41.511719 86.957031 41.1875 C 87.496094 40.851562 87.503906 40.4375 87 39.414062 C 86.453125 38.320312 85.214844 36.84375 84.84375 36.84375 C 84.296875 36.84375 84.554688 37.839844 85.332031 38.714844 C 85.554688 38.964844 85.734375 39.21875 85.734375 39.277344 C 85.734375 39.335938 85.933594 39.632812 86.179688 39.921875 C 86.691406 40.535156 86.785156 40.785156 86.585938 40.941406 C 86.503906 40.996094 86.394531 41.039062 86.328125 41.039062 C 86.125 41.039062 85.972656 41.273438 85.808594 41.796875 C 85.726562 42.066406 85.535156 42.492188 85.371094 42.738281 L 85.082031 43.195312 L 84.164062 43.242188 C 83.667969 43.261719 80.785156 43.308594 77.761719 43.332031 L 72.277344 43.375 L 71.824219 42.8125 C 71.574219 42.5 71.351562 42.167969 71.320312 42.070312 C 71.292969 41.976562 71.152344 41.726562 71.011719 41.519531 C 70.871094 41.308594 70.714844 41.003906 70.65625 40.84375 C 70.585938 40.628906 70.476562 40.5 70.238281 40.363281 C 70.023438 40.238281 69.855469 40.058594 69.742188 39.839844 C 69.507812 39.382812 69.558594 39.03125 69.90625 38.640625 C 70.328125 38.171875 70.300781 37.828125 69.757812 36.785156 C 69.15625 35.632812 69.210938 35.265625 69.996094 35.160156 C 70.699219 35.070312 71.136719 34.628906 71.136719 34.027344 C 71.136719 33.855469 71.054688 33.492188 70.945312 33.214844 C 70.839844 32.929688 70.734375 32.484375 70.714844 32.230469 L 70.667969 31.753906 L 71.292969 31.109375 C 72.144531 30.21875 72.75 29.738281 74.160156 28.808594 C 74.820312 28.367188 75.722656 27.746094 76.160156 27.417969 C 76.597656 27.09375 77.136719 26.742188 77.359375 26.636719 C 77.796875 26.441406 78.390625 25.957031 78.308594 25.875 C 78.226562 25.785156 77.945312 25.890625 77.472656 26.179688 C 77.226562 26.332031 76.722656 26.605469 76.359375 26.808594 C 75.464844 27.28125 74.410156 27.949219 74.011719 28.285156 C 73.839844 28.433594 73.574219 28.597656 73.433594 28.660156 C 73.292969 28.71875 73.054688 28.890625 72.90625 29.039062 C 72.757812 29.199219 72.492188 29.410156 72.3125 29.519531 C 72.136719 29.632812 71.757812 29.933594 71.46875 30.1875 C 71.1875 30.441406 70.722656 30.808594 70.445312 31.003906 C 69.816406 31.460938 69.238281 31.582031 68.171875 31.484375 C 67.148438 31.394531 66.496094 31.410156 65.914062 31.519531 C 65.265625 31.648438 64.742188 31.558594 64.164062 31.207031 C 63.578125 30.855469 63.429688 30.585938 63.429688 29.886719 C 63.429688 29.175781 63.296875 28.890625 62.800781 28.515625 C 62.378906 28.195312 62.332031 28.105469 62.324219 27.613281 C 62.316406 27.230469 62.496094 26.960938 62.746094 26.960938 C 62.828125 26.960938 62.949219 26.894531 63.015625 26.816406 C 63.207031 26.601562 63.105469 26.261719 62.726562 25.867188 L 62.40625 25.53125 L 61.960938 25.582031 C 61.546875 25.628906 61.488281 25.613281 61.050781 25.363281 C 60.792969 25.222656 60.390625 25.066406 60.167969 25.011719 C 59.945312 24.960938 59.71875 24.886719 59.671875 24.839844 C 59.613281 24.804688 59.578125 24.601562 59.578125 24.367188 C 59.578125 24.152344 59.53125 23.882812 59.488281 23.769531 C 59.398438 23.582031 59.414062 23.554688 59.71875 23.289062 L 60.035156 23.011719 L 59.679688 22.886719 C 59.234375 22.734375 58.878906 22.734375 58.433594 22.886719 C 57.441406 23.230469 56.6875 22.71875 56.6875 21.695312 C 56.6875 21.179688 56.796875 20.894531 57.152344 20.460938 C 57.507812 20.03125 58.226562 18.738281 58.441406 18.136719 C 58.578125 17.765625 58.613281 17.515625 58.613281 16.902344 C 58.613281 16.09375 58.480469 14.515625 58.28125 12.960938 C 58.09375 11.546875 58.265625 10.5 58.886719 9.253906 C 59.414062 8.191406 59.664062 7.960938 60.449219 7.796875 C 61.042969 7.667969 61.421875 7.691406 61.480469 7.839844 C 61.554688 8.035156 61.644531 8.074219 61.949219 8.035156 C 62.175781 8.003906 62.257812 8.035156 62.496094 8.238281 C 62.644531 8.371094 62.835938 8.574219 62.917969 8.703125 C 63.105469 8.964844 63.023438 9.105469 62.644531 9.179688 C 62.378906 9.234375 62.316406 9.316406 62.511719 9.390625 C 62.71875 9.472656 63.007812 9.4375 63.480469 9.277344 C 63.902344 9.128906 64 9.121094 64.460938 9.203125 C 64.742188 9.246094 65.03125 9.261719 65.097656 9.242188 C 65.230469 9.1875 65.429688 8.835938 65.429688 8.648438 C 65.429688 8.410156 65.652344 8.550781 65.984375 9.015625 C 66.347656 9.511719 66.625 9.757812 66.957031 9.886719 C 67.105469 9.945312 67.140625 9.996094 67.105469 10.109375 C 67.082031 10.191406 67.039062 10.328125 67.015625 10.410156 C 66.980469 10.519531 67.015625 10.566406 67.171875 10.605469 C 67.3125 10.644531 67.492188 10.589844 67.816406 10.417969 C 68.070312 10.289062 68.296875 10.183594 68.328125 10.183594 C 68.453125 10.183594 68.402344 10.898438 68.269531 11.085938 C 68.195312 11.1875 68.121094 11.4375 68.097656 11.636719 C 68.046875 12.152344 67.898438 12.230469 67.445312 11.96875 C 66.214844 11.242188 64.652344 10.535156 63.75 10.289062 C 63.109375 10.117188 60.84375 10.085938 60.324219 10.246094 C 59.835938 10.394531 59.652344 10.628906 59.652344 11.070312 C 59.652344 11.644531 59.679688 11.660156 61.050781 11.429688 C 63.453125 11.03125 64.851562 11.21875 66.699219 12.183594 C 67.136719 12.410156 67.609375 12.691406 67.757812 12.8125 L 68.023438 13.039062 L 68 13.921875 L 67.988281 14.800781 L 68.386719 15.621094 C 68.90625 16.675781 68.941406 16.976562 68.632812 17.621094 C 68.230469 18.4375 67.652344 18.832031 67.652344 18.296875 C 67.652344 18.03125 67.890625 17.5 68.136719 17.210938 C 68.34375 16.964844 68.371094 16.773438 68.214844 16.773438 C 68.105469 16.773438 66.765625 18.167969 66.765625 18.289062 C 66.765625 18.324219 66.859375 18.339844 66.980469 18.308594 C 67.15625 18.273438 67.214844 18.296875 67.28125 18.421875 C 67.386719 18.625 67.394531 20.03125 67.289062 20.429688 C 67.121094 21.050781 66.890625 20.851562 66.652344 19.882812 C 66.488281 19.214844 66.460938 19.164062 66.164062 19.066406 C 65.609375 18.878906 65.253906 17.53125 65.542969 16.691406 C 65.765625 16.0625 65.503906 15.777344 64.695312 15.785156 C 63.667969 15.800781 62.957031 15.382812 62.777344 14.664062 C 62.605469 13.972656 62.347656 14.019531 62.132812 14.785156 C 62.035156 15.121094 61.933594 15.300781 61.660156 15.570312 C 61.207031 16.011719 60.679688 16.28125 60.382812 16.21875 C 60.265625 16.199219 60.074219 16.152344 59.945312 16.132812 C 59.664062 16.070312 59.589844 16.234375 59.746094 16.574219 C 59.8125 16.699219 59.917969 17.195312 59.976562 17.667969 C 60.109375 18.609375 60.273438 19.3125 60.4375 19.636719 C 60.589844 19.941406 60.5625 20.101562 60.28125 20.445312 C 59.96875 20.820312 59.953125 21.015625 60.207031 21.132812 C 60.371094 21.210938 60.429688 21.195312 60.597656 21.050781 C 61.164062 20.59375 61.644531 20.570312 62.84375 20.960938 L 63.535156 21.1875 L 64.4375 20.292969 C 64.933594 19.800781 65.402344 19.398438 65.46875 19.398438 C 65.734375 19.398438 66.015625 19.628906 66.199219 20.011719 C 66.304688 20.21875 66.394531 20.4375 66.394531 20.488281 C 66.394531 20.671875 67.082031 22.667969 67.28125 23.066406 C 67.402344 23.289062 67.570312 23.554688 67.667969 23.640625 C 67.980469 23.933594 68.625 24.175781 69.453125 24.292969 C 70.269531 24.414062 70.582031 24.527344 70.773438 24.757812 C 70.832031 24.828125 71.046875 24.96875 71.246094 25.058594 C 71.757812 25.304688 72.460938 25.296875 73.277344 25.050781 C 73.9375 24.855469 73.972656 24.855469 75.09375 25.15625 C 75.839844 25.359375 76.761719 25.441406 76.976562 25.320312 C 77.070312 25.269531 77.136719 25.164062 77.136719 25.058594 C 77.136719 24.855469 77.472656 24.46875 77.605469 24.511719 C 77.648438 24.527344 77.777344 24.683594 77.886719 24.871094 L 78.078125 25.199219 L 78.496094 25.191406 L 78.917969 25.1875 L 78.769531 25.425781 C 78.6875 25.558594 78.621094 25.695312 78.621094 25.722656 C 78.621094 25.917969 80.175781 25.28125 82.117188 24.285156 C 82.726562 23.980469 82.941406 23.820312 83.058594 23.628906 C 83.222656 23.335938 84.257812 22.480469 84.496094 22.4375 C 84.585938 22.414062 84.992188 22.382812 85.402344 22.367188 L 86.140625 22.332031 L 86.414062 22.59375 C 86.800781 22.96875 86.867188 22.886719 86.832031 22.070312 L 86.808594 21.394531 L 87.15625 21.210938 C 87.394531 21.089844 87.542969 20.945312 87.632812 20.765625 C 87.765625 20.472656 87.933594 19.5 87.867188 19.425781 C 87.839844 19.402344 87.734375 19.441406 87.632812 19.507812 L 87.4375 19.636719 L 87.4375 19.363281 C 87.4375 19.214844 87.488281 18.976562 87.542969 18.832031 C 87.636719 18.617188 87.691406 18.570312 87.882812 18.570312 C 88.007812 18.570312 88.1875 18.535156 88.269531 18.488281 C 88.378906 18.429688 88.503906 18.429688 88.734375 18.496094 C 88.988281 18.570312 89.082031 18.5625 89.222656 18.488281 C 89.402344 18.390625 89.394531 18.390625 89.121094 18.339844 C 88.964844 18.316406 88.78125 18.242188 88.71875 18.175781 C 88.609375 18.0625 88.609375 18.046875 88.742188 18.011719 C 88.816406 17.988281 89.136719 17.859375 89.4375 17.742188 C 90.722656 17.21875 91.378906 17 91.714844 17 L 92.0625 17 L 91.773438 17.308594 C 91.378906 17.71875 90.824219 18.027344 90.3125 18.128906 C 89.875 18.21875 89.585938 18.371094 89.675781 18.460938 C 89.792969 18.578125 91.796875 17.972656 91.980469 17.769531 C 92.039062 17.695312 92.121094 17.523438 92.160156 17.382812 C 92.261719 16.984375 92.542969 16.8125 93.128906 16.804688 L 93.625 16.796875 L 93.601562 16.226562 C 93.582031 15.734375 93.609375 15.59375 93.804688 15.113281 C 94.046875 14.53125 94.085938 14.339844 94.335938 12.46875 C 94.535156 10.941406 94.507812 10.035156 94.21875 9.171875 C 93.964844 8.417969 93.707031 7.921875 93.351562 7.554688 C 93.019531 7.210938 92.675781 7.167969 92.3125 7.429688 C 92.164062 7.535156 92.054688 7.5625 91.996094 7.519531 C 91.945312 7.480469 91.742188 7.324219 91.542969 7.175781 C 91.097656 6.828125 89.839844 6.191406 89.289062 6.035156 C 89.070312 5.96875 88.699219 5.804688 88.476562 5.660156 C 88.253906 5.527344 87.933594 5.371094 87.773438 5.316406 C 87.570312 5.25 87.296875 5.039062 86.917969 4.652344 C 86.617188 4.335938 86.199219 3.960938 86.007812 3.828125 C 85.519531 3.488281 84.40625 2.972656 83.734375 2.769531 C 83.015625 2.554688 82.800781 2.441406 81.519531 1.632812 C 80.007812 0.675781 79.671875 0.53125 78.710938 0.449219 C 77.582031 0.359375 71.277344 0.308594 69.210938 0.375 Z M 54.980469 7.046875 C 54.980469 7.40625 54.558594 8.085938 54.34375 8.085938 C 54.046875 8.085938 54.210938 7.511719 54.632812 7.0625 C 54.871094 6.808594 54.980469 6.800781 54.980469 7.046875 Z M 55.167969 10.011719 C 55.269531 10.109375 55.285156 10.253906 55.265625 10.71875 C 55.25 11.039062 55.203125 11.339844 55.152344 11.390625 C 54.886719 11.660156 54.484375 11.007812 54.574219 10.429688 C 54.648438 9.9375 54.910156 9.75 55.167969 10.011719 Z M 93.8125 10.941406 C 93.8125 11.023438 93.78125 11.070312 93.738281 11.046875 C 93.699219 11.023438 93.664062 10.949219 93.664062 10.890625 C 93.664062 10.828125 93.699219 10.785156 93.738281 10.785156 C 93.78125 10.785156 93.8125 10.851562 93.8125 10.941406 Z M 63.378906 16.398438 C 63.882812 16.585938 64.371094 17.015625 64.546875 17.40625 C 64.734375 17.816406 64.726562 18.460938 64.535156 18.976562 C 64.304688 19.605469 63.882812 19.90625 62.976562 20.070312 C 62.480469 20.160156 62.246094 20.121094 62.246094 19.933594 C 62.246094 19.867188 62.363281 19.464844 62.511719 19.035156 C 62.828125 18.109375 62.816406 17.851562 62.421875 17.105469 C 62.132812 16.550781 62.125 16.488281 62.304688 16.355469 C 62.488281 16.214844 62.917969 16.226562 63.378906 16.398438 Z M 61.28125 17.710938 C 61.28125 17.808594 61.230469 18.03125 61.15625 18.207031 C 61.042969 18.488281 61.027344 18.503906 60.933594 18.378906 C 60.726562 18.09375 60.859375 17.523438 61.132812 17.523438 C 61.242188 17.523438 61.28125 17.578125 61.28125 17.710938 Z M 83.089844 19.296875 L 83.324219 19.433594 L 83.117188 19.457031 C 82.910156 19.480469 82.695312 19.363281 82.695312 19.238281 C 82.695312 19.132812 82.828125 19.15625 83.089844 19.296875 Z M 83.265625 20.347656 C 83.246094 20.421875 83.230469 20.375 83.230469 20.257812 C 83.230469 20.128906 83.246094 20.078125 83.265625 20.121094 C 83.28125 20.175781 83.28125 20.28125 83.265625 20.347656 Z M 86.84375 21.125 C 86.84375 21.230469 86.496094 21.367188 86.371094 21.320312 C 86.191406 21.253906 86.230469 21.058594 86.421875 21.03125 C 86.636719 20.992188 86.84375 21.042969 86.84375 21.125 Z M 78.53125 23.101562 C 78.648438 23.464844 78.582031 23.828125 78.414062 23.800781 C 78.257812 23.769531 78.070312 23.199219 78.132812 22.945312 C 78.207031 22.667969 78.414062 22.742188 78.53125 23.101562 Z M 69.558594 22.960938 C 69.582031 23.019531 69.542969 23.132812 69.476562 23.199219 C 69.363281 23.3125 69.351562 23.3125 69.238281 23.199219 C 69.082031 23.042969 69.15625 22.839844 69.359375 22.839844 C 69.4375 22.839844 69.527344 22.894531 69.558594 22.960938 Z M 70.871094 23.484375 C 70.9375 23.546875 70.972656 23.636719 70.949219 23.664062 C 70.847656 23.835938 70.046875 23.941406 69.675781 23.84375 C 69.410156 23.769531 69.476562 23.664062 69.789062 23.664062 C 69.9375 23.664062 70.179688 23.597656 70.320312 23.523438 C 70.640625 23.34375 70.722656 23.335938 70.871094 23.484375 Z M 72.773438 24.160156 C 73.1875 24.285156 73.433594 24.445312 73.433594 24.601562 C 73.433594 24.75 73.246094 24.789062 72.523438 24.78125 C 71.773438 24.773438 71.386719 24.675781 71.234375 24.4375 C 71.144531 24.300781 71.144531 24.261719 71.246094 24.160156 C 71.410156 24 72.234375 24 72.773438 24.160156 Z M 75.167969 24.511719 C 75.234375 24.625 75.21875 24.667969 75.109375 24.75 C 74.847656 24.945312 74.558594 24.652344 74.78125 24.429688 C 74.902344 24.308594 75.0625 24.339844 75.167969 24.511719 Z M 76.886719 24.429688 C 76.984375 24.585938 76.558594 24.871094 76.265625 24.847656 C 75.886719 24.820312 75.886719 24.660156 76.265625 24.488281 C 76.628906 24.324219 76.8125 24.300781 76.886719 24.429688 Z M 83.519531 26 C 83.867188 26.429688 84.84375 27.730469 84.84375 27.777344 C 84.84375 27.875 84.527344 28.136719 83.808594 28.613281 C 82.007812 29.820312 78.546875 32.523438 77.375 33.640625 C 76.871094 34.117188 76.339844 34.570312 76.191406 34.636719 C 76.035156 34.710938 75.796875 34.90625 75.648438 35.070312 L 75.382812 35.382812 L 75.070312 35.167969 C 74.691406 34.898438 73.359375 33.503906 73.085938 33.09375 L 72.886719 32.777344 L 73.328125 32.359375 C 73.863281 31.859375 76.671875 29.679688 77.566406 29.070312 C 78.464844 28.464844 79.53125 27.820312 80.65625 27.207031 C 81.960938 26.488281 83.230469 25.835938 83.3125 25.835938 C 83.347656 25.835938 83.4375 25.910156 83.519531 26 Z M 70.585938 43.050781 C 71.011719 43.25 71.507812 43.710938 71.664062 44.070312 C 71.832031 44.449219 71.855469 45.421875 71.691406 45.800781 C 71.632812 45.945312 71.367188 46.324219 71.089844 46.640625 C 70.824219 46.957031 70.417969 47.503906 70.195312 47.855469 C 69.765625 48.511719 69.519531 48.828125 69.425781 48.828125 C 69.34375 48.828125 68.675781 47.890625 68.136719 46.992188 C 67.503906 45.964844 67.066406 45.050781 67.046875 44.707031 C 67.023438 44.492188 67.054688 44.441406 67.246094 44.339844 C 67.371094 44.28125 67.867188 43.980469 68.359375 43.675781 C 68.847656 43.367188 69.351562 43.066406 69.46875 43.015625 C 69.789062 42.871094 70.230469 42.886719 70.585938 43.050781 Z M 84.695312 43.792969 C 84.695312 44.078125 83.109375 45.726562 82.605469 45.972656 C 82.191406 46.167969 81.230469 46.265625 78.789062 46.347656 C 77.648438 46.394531 76.738281 46.453125 76.554688 46.511719 C 76.277344 46.59375 76.191406 46.585938 75.855469 46.460938 C 75.539062 46.339844 75.269531 46.316406 74.34375 46.316406 C 73.152344 46.316406 72.945312 46.371094 73.105469 46.640625 C 73.242188 46.847656 73.65625 46.941406 74.847656 47.039062 C 75.945312 47.121094 79.421875 47.089844 81.308594 46.984375 C 81.804688 46.957031 82.140625 46.964844 82.191406 47.015625 C 82.238281 47.0625 82.199219 47.238281 82.082031 47.523438 C 81.976562 47.773438 81.859375 48.167969 81.8125 48.414062 C 81.761719 48.714844 81.644531 49 81.464844 49.253906 C 81.109375 49.777344 80.257812 50.578125 79.820312 50.804688 C 79.359375 51.042969 78.910156 51.449219 78.730469 51.777344 L 78.589844 52.039062 L 78.769531 52.242188 C 79.144531 52.644531 79.472656 52.722656 80.167969 52.554688 C 80.421875 52.496094 80.578125 52.496094 80.621094 52.542969 C 80.671875 52.59375 80.644531 53.179688 80.53125 54.277344 L 80.367188 55.941406 L 79.820312 55.941406 C 79.40625 55.941406 79.109375 55.890625 78.589844 55.710938 C 77.8125 55.449219 74.960938 54.601562 73.765625 54.277344 C 73.242188 54.136719 72.609375 54.039062 71.988281 53.988281 C 71.359375 53.941406 70.988281 53.882812 70.921875 53.816406 C 70.855469 53.738281 70.808594 53.417969 70.789062 52.75 C 70.734375 51.417969 70.882812 50.527344 71.394531 49.007812 C 71.789062 47.859375 71.882812 47.40625 71.738281 47.40625 C 71.65625 47.40625 70.988281 48.796875 70.808594 49.320312 C 70.742188 49.523438 70.609375 50.054688 70.507812 50.503906 C 70.300781 51.457031 70.171875 51.636719 69.734375 51.636719 C 69.304688 51.636719 69.1875 51.492188 69.238281 51.066406 C 69.304688 50.542969 69.535156 49.9375 69.957031 49.132812 C 70.5 48.109375 70.863281 47.597656 71.582031 46.84375 C 72.425781 45.960938 72.484375 45.832031 72.527344 44.882812 L 72.566406 44.109375 L 76.835938 44.132812 C 81.207031 44.148438 81.5625 44.132812 83.84375 43.816406 C 84.46875 43.726562 84.695312 43.726562 84.695312 43.792969 Z M 66.363281 45.398438 C 66.980469 46.070312 68.195312 48.152344 68.46875 49 C 68.535156 49.222656 68.535156 49.304688 68.46875 49.390625 C 68.230469 49.679688 67.898438 49.382812 67.03125 48.125 C 66.023438 46.664062 65.585938 45.554688 65.890625 45.25 C 66.03125 45.105469 66.128906 45.136719 66.363281 45.398438 Z M 63.488281 46.109375 C 63.414062 46.125 63.296875 46.125 63.230469 46.109375 C 63.15625 46.085938 63.214844 46.070312 63.355469 46.070312 C 63.496094 46.070312 63.554688 46.085938 63.488281 46.109375 Z M 61.117188 46.402344 C 61.496094 46.664062 61.125 47.089844 60.457031 47.148438 C 59.945312 47.203125 59.652344 47.097656 59.652344 46.847656 C 59.652344 46.632812 59.777344 46.519531 60.183594 46.394531 C 60.613281 46.257812 60.917969 46.257812 61.117188 46.402344 Z M 65.15625 46.445312 C 65.363281 46.609375 65.652344 47.054688 65.726562 47.335938 C 65.769531 47.488281 66.066406 47.988281 66.394531 48.460938 C 66.71875 48.925781 66.988281 49.351562 66.988281 49.40625 C 66.988281 49.546875 65 50.472656 64.976562 50.339844 C 64.972656 50.308594 64.976562 50.199219 64.984375 50.078125 C 65 49.824219 64.941406 49.824219 64.148438 50.101562 C 63.792969 50.21875 63.453125 50.324219 63.394531 50.324219 C 63.179688 50.324219 63.183594 50.085938 63.429688 49.578125 C 63.835938 48.722656 63.675781 48.660156 62.386719 49.1875 C 61.167969 49.6875 60.53125 49.785156 60.480469 49.480469 C 60.4375 49.269531 60.800781 48.863281 61.183594 48.675781 C 61.378906 48.585938 61.71875 48.394531 61.933594 48.242188 C 62.464844 47.875 62.882812 47.867188 63.429688 48.214844 C 63.875 48.496094 64.4375 48.640625 64.808594 48.570312 C 65.199219 48.488281 65.113281 48.332031 64.519531 48.046875 C 64.097656 47.839844 63.941406 47.726562 63.828125 47.515625 C 63.703125 47.269531 63.667969 47.246094 63.46875 47.300781 C 62.894531 47.449219 61.835938 47.171875 61.835938 46.882812 C 61.835938 46.757812 61.792969 46.757812 63.207031 46.8125 C 63.792969 46.835938 63.867188 46.820312 64.28125 46.601562 C 64.769531 46.339844 64.964844 46.304688 65.15625 46.445312 Z M 83.015625 48.046875 C 83.148438 48.117188 83.386719 48.28125 83.546875 48.414062 C 83.957031 48.746094 84.519531 49.097656 85.453125 49.613281 C 86.296875 50.078125 86.578125 50.289062 86.511719 50.40625 C 86.4375 50.527344 86 50.480469 85.769531 50.324219 C 85.652344 50.242188 85.46875 50.175781 85.363281 50.175781 C 84.957031 50.175781 83.644531 49.40625 82.984375 48.773438 C 82.554688 48.371094 82.457031 48.214844 82.519531 48.046875 C 82.578125 47.898438 82.71875 47.898438 83.015625 48.046875 Z M 83.148438 49.582031 C 83.386719 49.710938 83.71875 49.9375 83.890625 50.085938 C 84.066406 50.242188 84.578125 50.511719 85.132812 50.746094 L 86.066406 51.140625 L 86.089844 51.613281 C 86.121094 52.191406 86.015625 52.625 85.761719 52.996094 C 85.609375 53.238281 85.585938 53.335938 85.621094 53.628906 C 85.683594 54.039062 85.601562 54.121094 85.28125 53.996094 C 84.992188 53.867188 84.898438 53.964844 84.902344 54.386719 C 84.910156 54.847656 84.859375 54.96875 84.660156 54.96875 C 84.480469 54.96875 84.222656 54.707031 84.140625 54.4375 C 84.109375 54.359375 84.03125 54.292969 83.957031 54.292969 C 83.808594 54.292969 83.660156 54.667969 83.660156 55.050781 C 83.660156 55.597656 83.355469 55.898438 83.066406 55.65625 C 82.949219 55.550781 82.902344 55.371094 82.835938 54.628906 C 82.746094 53.664062 82.667969 53.433594 82.371094 53.382812 C 82.042969 53.3125 81.902344 53.492188 81.804688 54.085938 C 81.6875 54.835938 81.457031 55.601562 81.316406 55.726562 C 81.214844 55.808594 81.183594 55.800781 81.09375 55.679688 C 80.953125 55.492188 80.960938 55.195312 81.140625 53.882812 C 81.390625 52.011719 81.339844 51.679688 80.828125 51.777344 C 80.101562 51.914062 80.058594 51.914062 79.933594 51.785156 C 79.753906 51.613281 79.871094 51.417969 80.226562 51.3125 C 80.554688 51.214844 81.644531 50.355469 81.941406 49.964844 C 82.265625 49.539062 82.457031 49.351562 82.59375 49.351562 C 82.660156 49.351562 82.902344 49.457031 83.148438 49.582031 Z M 88.757812 49.914062 C 88.875 50.011719 89.015625 50.203125 89.074219 50.339844 C 89.128906 50.472656 89.261719 50.707031 89.378906 50.851562 C 89.492188 50.992188 89.675781 51.351562 89.792969 51.644531 C 89.914062 51.925781 90.148438 52.390625 90.320312 52.667969 C 90.609375 53.132812 90.625 53.179688 90.527344 53.328125 C 90.363281 53.558594 89.996094 53.792969 88.898438 54.359375 C 87.179688 55.253906 85.320312 55.910156 84.949219 55.761719 C 84.828125 55.710938 84.890625 55.628906 85.40625 55.132812 C 85.734375 54.808594 86.058594 54.476562 86.125 54.371094 C 86.1875 54.265625 86.265625 53.925781 86.289062 53.621094 C 86.320312 53.269531 86.410156 52.914062 86.519531 52.683594 C 86.617188 52.472656 86.726562 52.0625 86.765625 51.753906 C 86.839844 51.164062 86.992188 50.871094 87.296875 50.730469 C 88 50.398438 88.074219 50.347656 88.238281 50.039062 C 88.335938 49.867188 88.4375 49.726562 88.476562 49.726562 C 88.511719 49.726562 88.636719 49.808594 88.757812 49.914062 Z M 70.210938 54.324219 C 70.277344 54.460938 70.402344 54.609375 70.492188 54.65625 C 70.582031 54.699219 71.203125 54.839844 71.878906 54.96875 C 74.1875 55.402344 75.085938 55.628906 76.746094 56.1875 C 78.257812 56.703125 78.433594 56.726562 81.585938 56.726562 C 84.445312 56.726562 85.832031 56.621094 86.644531 56.351562 C 87.496094 56.070312 87.859375 55.910156 88.207031 55.671875 C 88.417969 55.539062 88.660156 55.417969 88.742188 55.417969 C 88.980469 55.417969 89.222656 55.746094 89.773438 56.824219 C 90.039062 57.351562 90.453125 58.046875 90.699219 58.375 C 90.9375 58.703125 91.226562 59.125 91.335938 59.3125 C 91.445312 59.5 91.75 59.976562 92.011719 60.382812 C 92.269531 60.796875 92.46875 61.160156 92.453125 61.214844 C 92.433594 61.265625 92.160156 61.386719 91.832031 61.476562 C 90.144531 61.960938 89.792969 62.277344 90.0625 63.0625 C 90.128906 63.242188 90.179688 63.5 90.179688 63.625 C 90.179688 64.074219 89.503906 64.507812 88.28125 64.832031 C 87.839844 64.941406 87.503906 64.957031 85.808594 64.941406 C 83.679688 64.921875 83.042969 64.980469 82.28125 65.273438 C 81.375 65.617188 80.800781 65.714844 79.730469 65.707031 C 78.605469 65.707031 77.878906 65.585938 76.554688 65.183594 C 75.441406 64.835938 74.691406 64.523438 74.351562 64.246094 C 74.195312 64.125 73.804688 63.945312 73.464844 63.84375 C 73.128906 63.738281 72.746094 63.574219 72.609375 63.46875 C 72.46875 63.371094 72.226562 63.222656 72.0625 63.140625 C 71.898438 63.0625 71.648438 62.882812 71.507812 62.757812 C 70.742188 62.046875 70.320312 61.878906 69.003906 61.78125 C 67.585938 61.671875 67.578125 61.671875 67.578125 61.339844 C 67.578125 60.9375 67.773438 60.234375 68.015625 59.761719 C 68.128906 59.535156 68.246094 59.191406 68.269531 58.996094 C 68.296875 58.800781 68.402344 58.441406 68.5 58.210938 C 68.59375 57.972656 68.714844 57.558594 68.765625 57.296875 C 68.808594 57.042969 68.949219 56.53125 69.078125 56.179688 C 69.34375 55.402344 69.949219 54.070312 70.03125 54.070312 C 70.0625 54.070312 70.144531 54.179688 70.210938 54.324219 Z M 82.382812 55.65625 C 82.40625 55.925781 82.238281 56.210938 82.09375 56.128906 C 82.007812 56.070312 82.015625 55.664062 82.109375 55.484375 C 82.222656 55.269531 82.363281 55.347656 82.382812 55.65625 Z M 82.183594 66.566406 C 82.4375 66.824219 82.4375 66.824219 82.289062 67.511719 C 82.230469 67.804688 82.15625 68.640625 82.132812 69.382812 C 82.082031 70.921875 82.09375 71.003906 82.726562 72.378906 C 82.925781 72.820312 83.066406 73.242188 83.066406 73.398438 C 83.066406 73.71875 82.941406 73.847656 81.917969 74.546875 C 81.511719 74.8125 80.710938 75.382812 80.140625 75.789062 C 78.84375 76.722656 78.347656 76.984375 77.871094 76.984375 C 77.25 76.984375 77.203125 76.835938 77.5625 75.878906 C 77.648438 75.621094 77.730469 75.339844 77.730469 75.253906 C 77.730469 75.164062 77.878906 74.820312 78.066406 74.476562 C 78.375 73.90625 78.421875 73.742188 78.613281 72.625 C 78.84375 71.285156 78.910156 71.09375 79.152344 71.054688 C 79.355469 71.023438 79.414062 70.832031 79.265625 70.6875 C 78.945312 70.363281 78.785156 69.519531 78.714844 67.902344 L 78.671875 66.726562 L 79.605469 66.726562 C 80.152344 66.726562 80.554688 66.753906 80.582031 66.800781 C 80.605469 66.84375 80.5625 66.964844 80.480469 67.070312 C 80.183594 67.445312 80.332031 67.796875 80.785156 67.796875 C 81.230469 67.796875 81.472656 67.136719 81.140625 66.835938 C 80.941406 66.648438 80.953125 66.582031 81.234375 66.464844 C 81.628906 66.289062 81.941406 66.320312 82.183594 66.566406 Z M 77.886719 67.039062 C 77.929688 67.128906 77.996094 67.722656 78.035156 68.367188 C 78.070312 69.007812 78.117188 69.648438 78.136719 69.78125 C 78.167969 69.914062 78.183594 70.34375 78.183594 70.71875 C 78.183594 71.308594 78.132812 71.632812 77.769531 73.054688 C 77.257812 75.070312 77.125 75.402344 76.679688 75.667969 C 76.5 75.773438 76.269531 75.871094 76.175781 75.878906 C 76.003906 75.898438 75.988281 75.878906 76.003906 75.597656 C 76.019531 75.441406 76.21875 74.546875 76.449219 73.617188 C 76.863281 71.960938 76.871094 71.914062 76.871094 70.84375 C 76.878906 70.246094 76.847656 69.371094 76.8125 68.890625 C 76.730469 67.8125 76.773438 67.550781 77.117188 67.167969 C 77.417969 66.824219 77.746094 66.769531 77.886719 67.039062 Z M 77.886719 67.039062 "/>
<path style=" stroke:none;fill-rule:nonzero;fill:rgb(0%,0%,0%);fill-opacity:1;" d="M 75.300781 31.769531 C 74.96875 32.121094 74.832031 32.492188 74.914062 32.816406 C 75.136719 33.609375 76.167969 33.664062 76.554688 32.890625 C 76.722656 32.554688 76.648438 32.304688 76.25 31.886719 C 75.835938 31.453125 75.632812 31.421875 75.300781 31.769531 Z M 75.300781 31.769531 "/>
<path style=" stroke:none;fill-rule:nonzero;fill:rgb(0%,0%,0%);fill-opacity:1;" d="M 80.746094 69.0625 C 80.503906 69.152344 80.429688 69.390625 80.546875 69.757812 C 80.703125 70.246094 81.257812 70.296875 81.503906 69.855469 C 81.605469 69.675781 81.605469 69.632812 81.496094 69.398438 C 81.355469 69.089844 81.050781 68.964844 80.746094 69.0625 Z M 80.746094 69.0625 "/>
<path style=" stroke:none;fill-rule:nonzero;fill:rgb(0%,0%,0%);fill-opacity:1;" d="M 80.472656 71.519531 C 80.175781 71.816406 80.414062 72.492188 80.8125 72.492188 C 81.035156 72.492188 81.355469 72.335938 81.53125 72.132812 C 81.660156 71.992188 81.660156 71.976562 81.316406 71.675781 C 80.933594 71.332031 80.695312 71.292969 80.472656 71.519531 Z M 80.472656 71.519531 "/>
<path style=" stroke:none;fill-rule:nonzero;fill:rgb(0%,0%,0%);fill-opacity:1;" d="M 80.449219 73.675781 C 80.273438 73.871094 80.289062 74.191406 80.480469 74.296875 C 80.695312 74.410156 81.117188 74.320312 81.214844 74.132812 C 81.28125 74.011719 81.257812 73.945312 81.074219 73.765625 C 80.820312 73.511719 80.621094 73.480469 80.449219 73.675781 Z M 80.449219 73.675781 "/>
<path style=" stroke:none;fill-rule:nonzero;fill:rgb(0%,0%,0%);fill-opacity:1;" d="M 44.511719 5.390625 C 44.410156 5.511719 44.265625 5.773438 44.199219 5.96875 C 43.949219 6.679688 43.421875 7.714844 42.96875 8.394531 C 42.371094 9.300781 42.089844 9.847656 42.089844 10.125 C 42.089844 10.453125 42.28125 10.769531 42.59375 10.925781 C 43.058594 11.167969 43.199219 11.179688 43.355469 11.039062 C 43.554688 10.859375 43.535156 10.695312 43.273438 10.460938 C 42.875 10.09375 43 9.601562 43.898438 8.058594 C 44.414062 7.167969 44.941406 6.109375 45.054688 5.714844 C 45.132812 5.460938 45.132812 5.378906 45.054688 5.28125 C 44.914062 5.109375 44.710938 5.144531 44.511719 5.390625 Z M 44.511719 5.390625 "/>
<path style=" stroke:none;fill-rule:nonzero;fill:rgb(0%,0%,0%);fill-opacity:1;" d="M 51.707031 7.429688 C 51.707031 7.480469 51.699219 7.929688 51.691406 8.425781 L 51.683594 9.324219 L 51.234375 10.257812 C 50.980469 10.777344 50.632812 11.40625 50.460938 11.660156 C 50.171875 12.101562 50.160156 12.152344 50.152344 12.6875 C 50.152344 13.136719 50.1875 13.308594 50.320312 13.554688 C 50.523438 13.914062 50.871094 14.152344 51.1875 14.152344 C 51.558594 14.152344 51.648438 14.222656 51.648438 14.492188 C 51.648438 14.949219 51.441406 15.855469 51.242188 16.242188 C 50.871094 16.992188 50.523438 18.59375 50.226562 21.007812 C 50.039062 22.464844 50.023438 23.230469 50.121094 25.425781 C 50.195312 27.050781 50.144531 27.371094 49.765625 27.753906 C 49.453125 28.066406 49.078125 28.144531 47.351562 28.21875 C 45.777344 28.292969 45.550781 28.359375 45.429688 28.792969 C 45.253906 29.445312 45.734375 30.300781 46.59375 30.886719 C 47.128906 31.238281 47.71875 31.828125 47.71875 32 C 47.71875 32.097656 47.566406 32.335938 47.171875 32.839844 C 46.921875 33.152344 46.964844 33.347656 47.296875 33.386719 C 47.542969 33.414062 48.023438 32.980469 48.320312 32.464844 C 48.75 31.714844 48.566406 31.140625 47.765625 30.726562 C 46.949219 30.316406 45.792969 29.355469 45.792969 29.09375 C 45.792969 28.945312 46.089844 28.898438 47.734375 28.847656 C 49.210938 28.785156 49.246094 28.785156 49.722656 28.5625 C 50.394531 28.242188 50.742188 27.910156 50.996094 27.351562 C 51.300781 26.667969 51.320312 26.375 51.121094 25.269531 C 50.632812 22.496094 51.179688 18.011719 52.320312 15.40625 C 52.691406 14.574219 52.796875 14.214844 52.738281 14.054688 C 52.664062 13.855469 52.359375 13.703125 51.804688 13.59375 C 51.179688 13.457031 51.011719 13.367188 50.90625 13.105469 C 50.789062 12.8125 50.988281 12.191406 51.601562 10.949219 C 52.328125 9.503906 52.464844 9.136719 52.464844 8.65625 C 52.464844 8.222656 52.308594 7.683594 52.113281 7.472656 C 51.980469 7.316406 51.730469 7.292969 51.707031 7.429688 Z M 51.707031 7.429688 "/>
<path style=" stroke:none;fill-rule:nonzero;fill:rgb(0%,0%,0%);fill-opacity:1;" d="M 47.832031 9.179688 C 47.75 9.203125 47.542969 9.285156 47.371094 9.359375 C 47.210938 9.445312 46.519531 9.699219 45.859375 9.921875 C 44.503906 10.394531 44 10.617188 43.957031 10.777344 C 43.898438 10.964844 44.71875 10.820312 45.867188 10.445312 C 46.460938 10.253906 47.089844 10.085938 47.277344 10.085938 C 47.578125 10.074219 47.609375 10.085938 47.632812 10.257812 C 47.644531 10.394531 47.527344 10.648438 47.269531 11.046875 C 46.503906 12.222656 46.535156 12.132812 46.535156 13.636719 C 46.535156 14.875 46.550781 15.03125 46.757812 15.816406 C 46.875 16.28125 47.105469 17.03125 47.261719 17.488281 C 48.105469 19.890625 48.320312 20.648438 48.328125 21.246094 C 48.335938 21.734375 48.179688 21.941406 47.832031 21.941406 C 47.699219 21.941406 47.445312 21.996094 47.269531 22.0625 C 47.089844 22.128906 46.691406 22.203125 46.386719 22.234375 C 45.148438 22.355469 42.683594 23.769531 42.683594 24.351562 C 42.683594 24.675781 42.941406 24.917969 43.480469 25.097656 C 44.15625 25.3125 44.503906 25.5 44.90625 25.828125 C 45.402344 26.25 45.609375 26.367188 45.75 26.316406 C 46.054688 26.195312 45.777344 25.460938 45.253906 24.992188 C 44.875 24.652344 44.585938 24.558594 44.140625 24.609375 C 43.636719 24.667969 43.488281 24.542969 43.71875 24.242188 C 43.957031 23.933594 44.261719 23.746094 44.84375 23.546875 C 45.140625 23.441406 45.625 23.238281 45.90625 23.09375 C 46.453125 22.832031 47.4375 22.539062 47.824219 22.539062 C 48.171875 22.535156 48.617188 22.300781 48.9375 21.941406 L 49.226562 21.621094 L 49.179688 20.976562 C 49.152344 20.570312 49.070312 20.136719 48.949219 19.808594 C 48.164062 17.578125 47.972656 16.925781 47.527344 14.875 C 47.328125 13.945312 47.328125 13.875 47.410156 13.105469 C 47.460938 12.671875 47.566406 12.027344 47.652344 11.675781 C 47.792969 11.097656 47.890625 10.875 48.445312 9.789062 C 48.609375 9.472656 48.617188 9.414062 48.527344 9.324219 C 48.410156 9.203125 48.054688 9.128906 47.832031 9.179688 Z M 47.832031 9.179688 "/>
<path style=" stroke:none;fill-rule:nonzero;fill:rgb(0%,0%,0%);fill-opacity:1;" d="M 84.214844 23.515625 C 84.125 23.925781 84.460938 24.601562 84.628906 24.332031 C 84.726562 24.175781 84.710938 23.84375 84.59375 23.554688 C 84.460938 23.230469 84.28125 23.214844 84.214844 23.515625 Z M 84.214844 23.515625 "/>
<path style=" stroke:none;fill-rule:nonzero;fill:rgb(0%,0%,0%);fill-opacity:1;" d="M 85.171875 31.804688 C 84.835938 32.171875 84.066406 33.738281 83.957031 34.261719 C 83.851562 34.769531 83.964844 35.085938 84.25 35.085938 C 84.472656 35.085938 84.609375 34.839844 85.328125 33.09375 C 85.90625 31.691406 85.925781 31.574219 85.636719 31.542969 C 85.472656 31.519531 85.371094 31.582031 85.171875 31.804688 Z M 85.171875 31.804688 "/>
<path style=" stroke:none;fill-rule:nonzero;fill:rgb(0%,0%,0%);fill-opacity:1;" d="M 87.988281 43.097656 C 87.839844 43.683594 88.996094 44.355469 89.59375 44.035156 C 89.933594 43.847656 89.699219 43.519531 89.054688 43.292969 C 88.832031 43.21875 88.542969 43.097656 88.417969 43.03125 C 88.105469 42.867188 88.039062 42.878906 87.988281 43.097656 Z M 87.988281 43.097656 "/>
<path style=" stroke:none;fill-rule:nonzero;fill:rgb(0%,0%,0%);fill-opacity:1;" d="M 89.378906 45.53125 C 89 45.570312 88.644531 45.636719 88.585938 45.683594 C 88.304688 45.921875 88.609375 46.8125 88.988281 46.867188 C 89.210938 46.902344 89.757812 46.691406 89.921875 46.503906 C 90.023438 46.386719 90.1875 45.433594 90.097656 45.464844 C 90.082031 45.472656 89.757812 45.5 89.378906 45.53125 Z M 89.378906 45.53125 "/>
<path style=" stroke:none;fill-rule:nonzero;fill:rgb(0%,0%,0%);fill-opacity:1;" d="M 87.082031 47.457031 C 86.917969 47.523438 86.769531 47.90625 86.769531 48.265625 C 86.769531 48.527344 86.816406 48.65625 86.957031 48.789062 C 87.1875 49.019531 87.378906 49.019531 87.773438 48.789062 C 88.171875 48.558594 88.328125 48.21875 88.171875 47.9375 C 87.957031 47.554688 87.421875 47.316406 87.082031 47.457031 Z M 87.082031 47.457031 "/>
</g>
</svg>
